<?xml version="1.0" encoding="utf-8"?>
<!-- Generator: Adobe Illustrator 22.0.0, SVG Export Plug-In . SVG Version: 6.00 Build 0)  -->
<svg version="1.1" id="Layer_1" xmlns="http://www.w3.org/2000/svg" xmlns:xlink="http://www.w3.org/1999/xlink" x="0px" y="0px"
	 viewBox="0 0 143 77" style="enable-background:new 0 0 143 77;" xml:space="preserve">
<style type="text/css">
	.st0{enable-background:new    ;}
	.st1{fill:#FFFFFF;}
</style>
<title>arrow-up - simple-line-icons</title>
<desc>Created with Sketch.</desc>
<g id="Page-1">
	<g id="all" transform="translate(-561.000000, -1175.000000)">
		<g class="st0">
			<path class="st1" d="M561.1,1246.6c0-0.6,0.1-1.1,0.4-1.8c0.2-0.6,0.6-1.1,1.1-1.6l66.9-66.9c0.9-0.8,2.1-1.3,3.4-1.3
				c1.3,0,2.4,0.4,3.4,1.3l66,66.1c0.9,0.9,1.4,2.1,1.4,3.4c0,1.3-0.5,2.4-1.4,3.4c-0.9,0.9-2.1,1.4-3.4,1.4c-1.3,0-2.4-0.5-3.4-1.4
				l-62.6-62.6l-63.6,63.4c-0.9,0.9-2.1,1.4-3.4,1.4c-1.3,0-2.4-0.5-3.4-1.4c-0.5-0.5-0.8-1-1.1-1.5
				C561.2,1247.9,561.1,1247.3,561.1,1246.6z"/>
		</g>
	</g>
</g>
</svg>
