<?xml version="1.0" encoding="utf-8"?>
<!-- Generator: Adobe Illustrator 22.0.0, SVG Export Plug-In . SVG Version: 6.00 Build 0)  -->
<svg version="1.1" id="Layer_1" xmlns="http://www.w3.org/2000/svg" xmlns:xlink="http://www.w3.org/1999/xlink" x="0px" y="0px"
	 viewBox="0 0 146 144" style="enable-background:new 0 0 146 144;" xml:space="preserve">
<style type="text/css">
	.st0{enable-background:new    ;}
	.st1{fill:#FFFFFF;}
</style>
<title>globe - simple-line-icons</title>
<desc>Created with Sketch.</desc>
<g id="Page-1">
	<g id="layout_2.1-infopage-copy-3" transform="translate(-135.000000, 0.000000)">
		<g class="st0">
			<path class="st1" d="M280.1,72c0,9.6-1.8,18.6-5.3,27.1c-3.5,8.5-8.3,15.9-14.5,22.4c-6.1,6.4-13.3,11.6-21.6,15.6
				c-8.3,4-17.1,6.3-26.4,6.8c-0.4,0-0.8,0-1.2,0.1c-0.4,0-0.8,0.1-1.2,0.1c-0.1,0-0.2,0-0.4,0s-0.3,0-0.4,0c-0.2,0-0.4,0-0.6,0
				c-0.2,0-0.4,0-0.6,0c-9.9,0-19.3-1.9-28.1-5.7c-8.8-3.8-16.4-9-22.9-15.5c-6.5-6.5-11.7-14.1-15.5-22.9s-5.7-18-5.7-28
				c0-9.9,1.9-19.3,5.7-28s9-16.3,15.5-22.9c6.5-6.5,14.2-11.7,22.9-15.5C188.7,1.9,198.1,0,208,0c0.2,0,0.4,0,0.6,0
				c0.2,0,0.4,0,0.6,0c0.1,0,0.2,0,0.4,0s0.3,0,0.4,0c0.4,0,0.8,0,1.2,0.1c0.4,0,0.8,0.1,1.2,0.1c9.4,0.6,18.2,2.8,26.4,6.8
				c8.2,4,15.4,9.2,21.6,15.6c6.1,6.4,11,13.9,14.5,22.4C278.4,53.4,280.1,62.4,280.1,72z M147.8,53c-0.9,3-1.7,6.1-2.2,9.3
				c-0.5,3.2-0.8,6.4-0.8,9.7c0,4,0.4,7.9,1.1,11.7s1.8,7.4,3.2,10.9c1.4-0.3,3.7-0.7,7-1.3c3.3-0.6,7.5-1.2,12.8-1.8
				c-0.6-3.1-1-6.3-1.3-9.6c-0.3-3.3-0.4-6.6-0.4-10c0-2.6,0.1-5.2,0.2-7.9c0.1-2.6,0.4-5.2,0.8-7.6c-6.1-0.7-10.8-1.3-14.1-2
				C150.7,53.8,148.7,53.3,147.8,53z M186.5,12.8c-3.9,1.4-7.6,3.2-11.1,5.3c-3.5,2.1-6.7,4.5-9.7,7.2c-3,2.7-5.7,5.7-8.2,8.9
				c-2.5,3.2-4.6,6.7-6.4,10.3c1.2,0.4,3.4,0.8,6.5,1.4s7.2,1.1,12.4,1.7c1.6-7.2,3.8-13.8,6.8-19.7C179.5,22.1,182.8,17,186.5,12.8
				z M153,102.9c1.9,3.3,4,6.4,6.4,9.2c2.4,2.9,5,5.5,7.8,7.9s5.8,4.5,9.1,6.5c3.2,1.9,6.6,3.5,10.2,4.7c-3.4-3.7-6.4-8.2-9.1-13.5
				c-2.7-5.2-4.9-11.1-6.5-17.4c-4.4,0.5-8.1,1-11,1.5C157,102.3,154.7,102.7,153,102.9z M176.1,72c0,3.3,0.1,6.5,0.4,9.6
				s0.7,6.1,1.1,9.1c3.7-0.3,7.6-0.5,11.9-0.7c4.3-0.2,8.9-0.3,13.9-0.4V58.4c-5.2,0-9.9-0.1-14.3-0.3c-4.4-0.2-8.4-0.4-12-0.7
				c-0.3,2.3-0.5,4.7-0.7,7.2C176.2,67,176.1,69.5,176.1,72z M203.4,9.7c-2.7,0.8-5.3,2.4-7.9,4.7c-2.5,2.3-4.9,5.1-7,8.4
				c-2.1,3.3-4,7.2-5.7,11.5s-3.1,9-4.2,14c3.5,0.3,7.3,0.5,11.4,0.7c4.1,0.2,8.6,0.3,13.4,0.4V9.7z M203.4,98.6
				c-4.6,0.1-8.9,0.2-12.8,0.4s-7.6,0.4-11,0.6c1.1,4.5,2.5,8.7,4.2,12.6c1.7,3.9,3.6,7.3,5.6,10.3c2.1,3,4.3,5.5,6.6,7.5
				c2.3,2,4.8,3.4,7.3,4.3V98.6z M212.4,9.6v39.9c4.9-0.1,9.4-0.2,13.4-0.4c4.1-0.2,7.9-0.4,11.3-0.7c-1.1-5.1-2.5-9.8-4.1-14.1
				c-1.6-4.4-3.5-8.2-5.7-11.6c-2.2-3.4-4.5-6.2-7-8.4S215.1,10.4,212.4,9.6z M212.4,89.6c5,0.1,9.6,0.2,13.9,0.4
				c4.3,0.2,8.2,0.4,11.7,0.7c0.5-3,0.8-6,1.1-9.1s0.4-6.3,0.4-9.6c0-2.5-0.1-5-0.3-7.5c-0.2-2.4-0.4-4.9-0.7-7.3
				c-3.6,0.4-7.5,0.7-11.9,0.8c-4.4,0.2-9.1,0.3-14.3,0.3V89.6z M212.4,134.4c2.5-0.7,5-2.1,7.4-4.1c2.4-2,4.6-4.5,6.7-7.5
				c2.1-3,3.9-6.5,5.6-10.4c1.6-3.9,3-8.2,4.1-12.8c-3.3-0.3-6.9-0.5-10.9-0.6c-4-0.1-8.3-0.3-12.9-0.4V134.4z M264.7,44.2
				c-3.3-6.7-7.6-12.6-13.1-17.7c-5.4-5.2-11.6-9.2-18.4-12.2c2.9,4.1,5.5,9,7.7,14.7c2.2,5.7,4,11.9,5.3,18.6
				c5.6-0.7,9.9-1.3,12.9-2C262.2,44.8,264,44.3,264.7,44.2z M233.2,129.8c6.2-2.7,11.8-6.3,16.9-10.8s9.3-9.7,12.7-15.6
				c-1.4-0.4-3.5-0.8-6.3-1.3c-2.8-0.5-6.5-1.1-11-1.6c-1.3,5.9-3,11.3-5.1,16.3C238.2,121.7,235.8,126,233.2,129.8z M266.8,95.2
				c1.4-3.6,2.5-7.3,3.2-11.2c0.7-3.9,1.1-7.9,1.1-12c0-4.3-0.4-8.5-1.3-12.6s-2-7.9-3.5-11.6l1.7,4.6c-0.3,0.1-2,0.6-5.3,1.4
				s-8.3,1.7-15.3,2.5c0.3,2.5,0.5,5.1,0.7,7.7c0.2,2.6,0.3,5.2,0.3,7.9c0,3.4-0.1,6.7-0.4,10c-0.3,3.3-0.6,6.5-1,9.6
				c5.4,0.7,9.7,1.3,12.9,2C263.2,94.3,265.5,94.8,266.8,95.2z"/>
		</g>
	</g>
</g>
</svg>
