<?xml version="1.0" encoding="utf-8"?>
<!-- Generator: Adobe Illustrator 22.0.0, SVG Export Plug-In . SVG Version: 6.00 Build 0)  -->
<svg version="1.1" id="Layer_1" xmlns="http://www.w3.org/2000/svg" xmlns:xlink="http://www.w3.org/1999/xlink" x="0px" y="0px"
	 viewBox="0 0 108 108" style="enable-background:new 0 0 108 108;" xml:space="preserve">
<style type="text/css">
	.st0{enable-background:new    ;}
	.st1{fill:#FFFFFF;}
</style>
<title>ion-social-instagram-outline - Ionicons</title>
<desc>Created with Sketch.</desc>
<g id="Page-1">
	<g id="Homepage" transform="translate(-1297.000000, -2988.000000)">
		<g class="st0">
			<path class="st1" d="M1405,3001.5v81.3c0,3.6-1.3,6.7-3.9,9.3c-2.6,2.6-5.8,3.9-9.6,3.9h-81c-3.8,0-6.9-1.3-9.6-3.9
				c-2.6-2.6-3.9-5.7-3.9-9.3v-81.3c0-3.7,1.3-6.9,3.9-9.6c2.6-2.6,5.8-3.9,9.6-3.9h81c3.7,0,6.9,1.3,9.6,3.9
				C1403.7,2994.6,1405,2997.8,1405,3001.5z M1391.8,3087c2.8,0,4.2-1.5,4.2-4.5V3033h-14.6c0.7,2.4,1.1,5.4,1.1,9
				c0,8.8-3,16.2-9,22.2c-6.2,6.2-13.7,9.3-22.5,9.3c-8.6,0-16-3.1-22.2-9.3s-9.3-13.6-9.3-22.2c0-2.8,0.5-5.8,1.4-9H1306v49.5
				c0,1.3,0.5,2.4,1.4,3.2c0.9,0.8,2.1,1.3,3.4,1.3H1391.8z M1366.9,3026.1c-4.4-4.4-9.7-6.6-15.9-6.6s-11.5,2.2-15.9,6.6
				c-4.4,4.4-6.6,9.7-6.6,15.9s2.2,11.5,6.6,15.9c4.4,4.4,9.7,6.6,15.9,6.6s11.5-2.2,15.9-6.6c4.4-4.4,6.6-9.7,6.6-15.9
				S1371.3,3030.5,1366.9,3026.1z M1396,3015v-13.5c0-3-1.5-4.5-4.5-4.5H1378c-3,0-4.5,1.5-4.5,4.5v13.5c0,3,1.5,4.5,4.5,4.5h13.5
				C1394.5,3019.5,1396,3018,1396,3015z"/>
		</g>
	</g>
</g>
</svg>
