<?xml version="1.0" encoding="utf-8"?>
<!-- Generator: Adobe Illustrator 22.0.0, SVG Export Plug-In . SVG Version: 6.00 Build 0)  -->
<svg version="1.1" id="Layer_1" xmlns="http://www.w3.org/2000/svg" xmlns:xlink="http://www.w3.org/1999/xlink" x="0px" y="0px"
	 viewBox="0 0 108 108" style="enable-background:new 0 0 108 108;" xml:space="preserve">
<style type="text/css">
	.st0{enable-background:new    ;}
	.st1{fill:#4D4D4D;}
</style>
<title>ion-social-linkedin - Ionicons</title>
<desc>Created with Sketch.</desc>
<g id="Page-1">
	<g id="Homepage" transform="translate(-1297.000000, -2844.000000)">
		<g class="st0">
			<path class="st1" d="M1396.4,2844c2.4,0,4.5,0.8,6.2,2.4c1.7,1.6,2.5,3.6,2.5,6v90.3c0,2.4-0.8,4.6-2.5,6.5
				c-1.7,1.9-3.8,2.8-6.2,2.8h-90c-2.4,0-4.6-0.9-6.5-2.8c-1.9-1.9-2.8-4-2.8-6.5v-90.3c0-2.4,0.9-4.5,2.7-6c1.8-1.6,4-2.4,6.6-2.4
				H1396.4z M1317.4,2876.2c1.5,1.6,3.5,2.4,5.9,2.4c2.4,0,4.5-0.8,6-2.4c1.6-1.6,2.4-3.5,2.4-5.8c0-2.4-0.8-4.5-2.2-6
				c-1.5-1.6-3.5-2.4-5.9-2.4c-2.4,0-4.5,0.8-6,2.4c-1.6,1.6-2.4,3.6-2.4,6C1315.1,2872.7,1315.8,2874.6,1317.4,2876.2z
				 M1330.6,2934v-48.1h-15.5v48.1H1330.6z M1387.1,2934v-28.1c0-6.9-1.6-12.2-4.9-15.8c-3.3-3.6-7.5-5.3-12.8-5.3
				c-5.6,0-10.3,2.6-14.1,7.9v-6.8h-15.5v48.1h15.5v-27.3c0-1.9,0.2-3.2,0.6-3.9c1.5-3.7,4.1-5.6,7.9-5.6c5.2,0,7.9,3.5,7.9,10.4
				v26.4H1387.1z"/>
		</g>
	</g>
</g>
</svg>
