<svg xmlns="http://www.w3.org/2000/svg" viewBox="0 0 910.88 831.5"><defs><style>.cls-1{fill:#fff;}</style></defs><title>Asset 5_1</title><g id="Layer_2" data-name="Layer 2"><g id="Lager_1" data-name="Lager 1"><path class="cls-1" d="M342.91,322.56a97.7,97.7,0,0,0-31.62-31.84q-20.06-12.78-49.74-20.79,63.61-13.69,95.62-46.25t32-83.2q0-71.2-46.66-105.66T199.09.36H0V31.61l43.52,4.57,13.13,1.13V477.06l.26,11.05L0,491.92v32H185.59v-32l-58.68-3.81.07-11.05V291.48l2.7-.38q25.45-1.14,37-1.14,54.36,0,81.16,18.29t42.61,65.92c2.82,8.39,6.9,20.78,13,37.33,10.8,29.46,19.68,55.06,26.62,74,.13.35,6.26,18,6.38,18.29L694.44,0h-16.5c-.26-.8-301.73,426.87-302,426-3.1-10.06-6.25-22.43-10.67-41.83Q356,343.55,342.91,322.56ZM170.1,253.78q-9.93,0-20.6-.19T127,253V35.53h37.78q75.92,0,109.89,26.28t34,84.55q0,56.38-33,81.9T170.1,253.78Z"/><polygon class="cls-1" points="852.03 342.89 910.88 338.32 910.88 307.08 719.43 307.08 719.43 338.27 782.03 342.83 781.95 353.87 781.95 537.6 514.3 537.6 514.3 427.62 514.44 394.75 201.44 831.5 217.44 831.5 442.02 512.23 442.02 783.71 441.36 794.77 385.37 798.59 385.37 830.64 574.87 830.64 574.87 798.5 512.91 794.67 512.35 783.58 512.35 572.76 781.95 572.76 781.95 783.58 782.03 794.67 719.43 798.5 719.43 830.64 910.88 830.64 910.88 798.63 852.03 794.82 852.28 783.77 852.28 353.95 852.03 342.89"/></g></g></svg>