<?xml version="1.0" encoding="utf-8"?>
<!-- Generator: Adobe Illustrator 22.0.0, SVG Export Plug-In . SVG Version: 6.00 Build 0)  -->
<svg version="1.1" id="Layer_1" xmlns="http://www.w3.org/2000/svg" xmlns:xlink="http://www.w3.org/1999/xlink" x="0px" y="0px"
	 viewBox="0 0 918.6 1016.6" style="enable-background:new 0 0 918.6 1016.6;" xml:space="preserve">
<style type="text/css">
	.st0{fill:#FFFFFF;}
	.st1{enable-background:new    ;}
</style>
<title>Asset 7</title>
<path class="st0" d="M350.2,322.6c-7.9-12.9-18.7-23.8-31.6-31.8c-13.4-8.5-30-15.5-49.7-20.8c42.4-9.1,74.3-24.5,95.6-46.2
	s32-49.4,32-83.2c0-47.5-15.6-82.7-46.6-105.7s-79-34.5-143.5-34.5H7.3v31.2l43.5,4.6L64,37.3v439.8l0.3,11l-56.9,3.8v32H193v-32
	l-58.7-3.8l0.1-11V291.5l2.7-0.4c17-0.7,29.3-1.1,37-1.1c36.3,0,63.3,6.1,81.2,18.3c17.9,12.2,32.1,34.2,42.6,65.9
	c2.8,8.4,6.9,20.8,13,37.3c10.8,29.5,19.7,55.1,26.6,74c0.1,0.4,6.2,18,6.4,18.3L701.8,0h-16.5c-0.3-0.8-301.7,426.9-302,426
	c-3.1-10.1-6.2-22.4-10.7-41.8C366.4,357.1,359,336.6,350.2,322.6z M177.4,253.8c-6.6,0-13.5-0.1-20.6-0.2
	c-7.1-0.1-14.6-0.3-22.5-0.6V35.5h37.8c50.6,0,87.3,8.8,109.9,26.3s34,45.7,34,84.6c0,37.6-11,64.9-33,81.9S225.8,253.8,177.4,253.8
	L177.4,253.8z"/>
<polygon class="st0" points="859.3,342.9 918.2,338.3 918.2,307.1 726.7,307.1 726.7,338.3 789.3,342.8 789.2,353.9 789.2,537.6 
	521.6,537.6 521.6,427.6 521.8,394.8 208.8,831.5 224.8,831.5 449.3,512.2 449.3,783.7 448.7,794.8 392.7,798.6 392.7,830.6 
	582.2,830.6 582.2,798.5 520.2,794.7 519.7,783.6 519.7,572.8 789.2,572.8 789.2,783.6 789.3,794.7 726.7,798.5 726.7,830.6 
	918.2,830.6 918.2,798.6 859.3,794.8 859.6,783.8 859.6,354 "/>
<g class="st1">
	<path class="st0" d="M13,912.7h30.3c9.7,0,16.9,1.8,21.6,5.3c4.7,3.5,7,8.9,7,16.1c0,5.1-1.6,9.4-4.8,12.7c-3.2,3.3-8,5.7-14.4,7.1
		c3,0.8,5.5,1.9,7.5,3.2c2,1.3,3.6,2.9,4.8,4.9c1.3,2.1,2.4,5.3,3.4,9.4c0.9,4.1,1.7,6.9,2.2,8.2c1.2,3.3,2.8,5.5,4.9,6.7
		c2.1,1.2,5.6,1.8,10.5,1.8h1v4.5c-1.8,0.3-3.4,0.6-4.9,0.8c-1.5,0.2-2.9,0.3-4.3,0.3c-2.8,0-5.1-0.3-7.1-0.8c-2-0.6-3.6-1.4-5-2.6
		c-2.8-2.5-5.2-7.3-7-14.5c-0.7-2.6-1.3-4.5-1.7-5.8c-1.6-4.8-3.7-8.2-6.4-10.1c-2.7-1.9-6.8-2.8-12.2-2.8c-1.2,0-3,0.1-5.6,0.2
		l-0.4,0.1v28.3l2,1.7l6.8,0.6v4.9H13v-4.9l6.7-0.6l2-1.7v-65.5l-2-1.7l-6.7-0.7V912.7z M32.4,918.2v33.1c1.2,0,2.3,0.1,3.4,0.1
		c1.1,0,2.1,0,3.1,0c7.4,0,12.7-1.3,16.1-3.9c3.4-2.6,5-6.7,5-12.5c0-5.9-1.7-10.2-5.2-12.9c-3.4-2.7-9-4-16.7-4H32.4z"/>
	<path class="st0" d="M113.6,934.1c8.1,0,14.7,2.8,19.9,8.3c5.2,5.6,7.8,12.7,7.8,21.4s-2.6,15.9-7.8,21.4s-11.8,8.3-19.9,8.3
		c-8.1,0-14.7-2.8-19.8-8.3c-5.2-5.5-7.8-12.7-7.8-21.4c0-8.8,2.6-15.9,7.7-21.4C98.9,936.9,105.5,934.1,113.6,934.1z M113.6,939.2
		c-5,0-8.9,2.2-11.9,6.7c-3,4.5-4.5,10.5-4.5,17.9c0,7.5,1.5,13.5,4.5,17.9c3,4.5,7,6.7,11.9,6.7c5,0,9-2.2,12-6.7
		c3-4.5,4.5-10.4,4.5-18c0-7.4-1.5-13.4-4.6-17.9C122.6,941.5,118.6,939.2,113.6,939.2z"/>
	<path class="st0" d="M161.4,905h4.5v33.3c2.9-1.4,5.8-2.4,8.5-3.1s5.3-1,7.9-1c7,0,12.7,2.5,17,7.5c4.3,5,6.5,11.6,6.5,19.6
		c0,10.3-2.9,18.1-8.7,23.4c-5.8,5.3-14.4,7.9-25.8,7.9h-15.3V913h-9.2v-3.7L161.4,905z M165.9,987.1c1.2,0,2.4,0.1,3.5,0.1
		c1.1,0,2.1,0,3.1,0c7.8,0,13.5-1.9,17.1-5.7c3.6-3.8,5.5-9.8,5.5-18c0-7.4-1.6-13.1-4.9-17.1c-3.2-4-7.9-6-13.9-6
		c-1.4,0-3,0.2-4.7,0.5c-1.7,0.3-3.7,0.8-5.8,1.5V987.1z"/>
	<path class="st0" d="M227.8,934.7h4.6v51l2,1.9l6.4,0.6v4.3h-26.7v-4.3l6.3-0.6l2-1.9v-43.1h-8.3V939L227.8,934.7z M228.2,908.3
		c1.9,0,3.6,0.7,4.9,2c1.3,1.4,2,3,2,4.9c0,1.9-0.7,3.5-2,4.8c-1.3,1.3-3,2-4.9,2c-1.9,0-3.5-0.7-4.9-2c-1.3-1.3-2-2.9-2-4.8
		c0-1.9,0.7-3.6,2-4.9C224.7,909,226.3,908.3,228.2,908.3z"/>
	<path class="st0" d="M246.8,992.6v-4.3l6.4-0.6l2-1.9v-43.1h-8.5V939l13.8-4.2h4.5v6.5c4.8-2.6,8.6-4.5,11.5-5.5
		c2.9-1.1,5.5-1.6,7.7-1.6c5.2,0,9.2,1.5,11.9,4.6c2.8,3.1,4.1,7.6,4.1,13.5v33.5l2,1.9l6.4,0.6v4.3h-26v-4.3l5.7-0.6l2-1.9v-31.5
		c0-4.5-0.9-7.6-2.8-9.5s-4.9-2.8-9.3-2.8c-1.9,0-4,0.3-6.2,1c-2.2,0.6-4.6,1.6-7.1,2.9v39.9l2,1.9l5.7,0.6v4.3H246.8z"/>
	<path class="st0" d="M347.8,912.7h28.9v4.8l-7.4,0.7l-2,1.7v28.1h41v-28.1l-2-1.7l-7.4-0.7v-4.8h28.9v4.8l-6.8,0.7l-2,1.7v65.5
		l2,1.7l6.8,0.6v4.9h-28.9v-4.9l7.4-0.6l2-1.7v-32h-41v32l2,1.7l7.4,0.6v4.9h-28.9v-4.9l6.7-0.6l2-1.7v-65.5l-2-1.7l-6.7-0.7V912.7z
		"/>
	<path class="st0" d="M481.4,951.2v34.5l2,1.9l6.3,0.6v4.3H473l-1.6-6.9c-3.8,2.6-7.4,4.6-10.5,5.8c-3.2,1.3-6.2,1.9-9,1.9
		c-4.6,0-8.3-1.4-11.1-4.2s-4.2-6.5-4.2-11c0-5.1,2.1-9.1,6.2-12s13.7-6.1,28.5-9.7v-3.8c0-5-0.8-8.5-2.4-10.4
		c-1.6-1.9-4.5-2.9-8.5-2.9c-1.5,0-3,0.2-4.5,0.5c-1.5,0.3-3,0.8-4.6,1.4v10h-8.2c-1.4,0-2.4-0.3-2.9-0.8c-0.5-0.5-0.8-1.5-0.8-2.9
		c0-3.9,2.2-7.1,6.7-9.6c4.5-2.6,10.3-3.8,17.3-3.8c6.2,0,10.8,1.4,13.6,4.1C480,940.9,481.4,945.2,481.4,951.2z M471.4,960.7
		c-10,2.8-16.5,5.3-19.6,7.6c-3.1,2.3-4.7,5.3-4.7,9c0,3,0.9,5.4,2.6,7.1c1.7,1.8,4,2.6,6.9,2.6c1.9,0,4-0.4,6.4-1.3
		c2.4-0.9,5.2-2.2,8.3-4V960.7z M461.4,899.6c4,0,7.3,1.3,10,4c2.7,2.7,4.1,6,4.1,9.9c0,4-1.4,7.3-4.1,10c-2.7,2.7-6.1,4.1-10,4.1
		c-3.9,0-7.2-1.4-9.9-4.1c-2.7-2.7-4-6-4-10c0-3.9,1.3-7.2,4-9.9S457.5,899.6,461.4,899.6z M461.4,905c-2.4,0-4.4,0.8-6.1,2.5
		c-1.6,1.7-2.5,3.7-2.5,6.2c0,2.4,0.8,4.4,2.5,6.1c1.7,1.7,3.7,2.5,6,2.5c2.4,0,4.5-0.8,6.2-2.5c1.7-1.7,2.6-3.7,2.6-6.1
		c0-2.4-0.9-4.4-2.6-6.1C465.9,905.8,463.8,905,461.4,905z"/>
	<path class="st0" d="M494.9,992.6v-4.3l6.5-0.6l2-1.9V913h-9.2v-3.7l14.5-4.2h4.5v57.2h2.3l18.2-20.3l-0.8-1.7l-5.4-0.5v-4.4h22.6
		v4.4l-7.6,0.9l-16.3,17.3l20.9,29.5l7.6,0.6v4.5h-18.5v-4l-16.1-23.1h-6.9v20.2l2.1,1.9l5.6,0.6v4.3H494.9z"/>
	<path class="st0" d="M593.2,985.6c-3.8,2.6-7.4,4.6-10.5,5.8c-3.2,1.3-6.2,1.9-9,1.9c-4.6,0-8.3-1.4-11.1-4.2s-4.2-6.5-4.2-11
		c0-5.1,2.1-9.1,6.2-12s13.7-6.1,28.5-9.7v-3.8c0-5-0.8-8.5-2.4-10.4c-1.6-1.9-4.5-2.9-8.5-2.9c-1.5,0-3,0.2-4.5,0.5
		c-1.5,0.3-3,0.8-4.6,1.4v10h-8.2c-1.4,0-2.4-0.3-2.9-0.8c-0.5-0.5-0.8-1.5-0.8-2.9c0-3.9,2.2-7.1,6.7-9.6
		c4.5-2.6,10.3-3.8,17.3-3.8c6.2,0,10.8,1.4,13.6,4.1c2.8,2.7,4.2,7.1,4.2,13.1v34.5l2,1.9l6.3,0.6v4.3h-16.7L593.2,985.6z
		 M593.2,981.6v-21c-10,2.8-16.5,5.3-19.6,7.6c-3.1,2.3-4.7,5.3-4.7,9c0,3,0.9,5.4,2.6,7.1c1.7,1.8,4,2.6,6.9,2.6
		c1.9,0,4-0.4,6.4-1.3C587.3,984.8,590.1,983.4,593.2,981.6z"/>
	<path class="st0" d="M617.4,992.6v-4.3l6.4-0.6l2-1.9v-43.1h-8.5V939l13.8-4.2h4.5v6.5c4.8-2.6,8.6-4.5,11.5-5.5
		c2.9-1.1,5.5-1.6,7.7-1.6c5.2,0,9.2,1.5,11.9,4.6c2.8,3.1,4.1,7.6,4.1,13.5v33.5l2,1.9l6.4,0.6v4.3h-26v-4.3l5.7-0.6l2-1.9v-31.5
		c0-4.5-0.9-7.6-2.8-9.5s-4.9-2.8-9.3-2.8c-1.9,0-4,0.3-6.2,1c-2.2,0.6-4.6,1.6-7.1,2.9v39.9l2,1.9l5.7,0.6v4.3H617.4z"/>
	<path class="st0" d="M722.4,936.7v13.5h-5.9l-0.9-8.4c-1.6-0.9-3.1-1.5-4.5-1.9c-1.4-0.4-2.9-0.6-4.3-0.6c-3.1,0-5.5,0.8-7.3,2.3
		c-1.7,1.5-2.6,3.6-2.6,6.3c0,2.2,0.7,4.1,2.1,5.6c1.4,1.5,4.1,3.3,8,5.2c0.6,0.3,1.6,0.8,2.8,1.3c4.5,2.1,7.7,3.9,9.8,5.6
		c1.5,1.2,2.6,2.6,3.4,4.4c0.8,1.8,1.2,3.7,1.2,5.8c0,5.6-2,9.9-5.9,13.1s-9.4,4.7-16.4,4.7c-2.9,0-5.6-0.2-8.2-0.6
		c-2.6-0.4-5-1-7.2-1.9v-15.5h5.7l1.5,10.1c1.7,1,3.3,1.7,5,2.2c1.7,0.5,3.4,0.7,5.1,0.7c3.4,0,6.1-0.9,8.1-2.6c2-1.8,3-4.1,3-6.9
		c0-2.4-0.7-4.4-2.1-6c-1.4-1.6-4.7-3.6-10-6c-6-2.7-10-5.2-12.2-7.6c-2.1-2.4-3.2-5.3-3.2-8.8c0-5.3,1.8-9.4,5.5-12.3
		c3.7-2.9,8.9-4.4,15.6-4.4c2.7,0,5.2,0.2,7.5,0.7C718.2,935.2,720.3,935.9,722.4,936.7z"/>
	<path class="st0" d="M769.9,936.7v13.5h-5.9l-0.9-8.4c-1.6-0.9-3.1-1.5-4.5-1.9c-1.4-0.4-2.9-0.6-4.3-0.6c-3.1,0-5.5,0.8-7.3,2.3
		c-1.7,1.5-2.6,3.6-2.6,6.3c0,2.2,0.7,4.1,2.1,5.6c1.4,1.5,4.1,3.3,8,5.2c0.6,0.3,1.6,0.8,2.8,1.3c4.5,2.1,7.7,3.9,9.8,5.6
		c1.5,1.2,2.6,2.6,3.4,4.4c0.8,1.8,1.2,3.7,1.2,5.8c0,5.6-2,9.9-5.9,13.1s-9.4,4.7-16.4,4.7c-2.9,0-5.6-0.2-8.2-0.6
		c-2.6-0.4-5-1-7.2-1.9v-15.5h5.7l1.5,10.1c1.7,1,3.3,1.7,5,2.2c1.7,0.5,3.4,0.7,5.1,0.7c3.4,0,6.1-0.9,8.1-2.6c2-1.8,3-4.1,3-6.9
		c0-2.4-0.7-4.4-2.1-6c-1.4-1.6-4.7-3.6-10-6c-6-2.7-10-5.2-12.2-7.6c-2.1-2.4-3.2-5.3-3.2-8.8c0-5.3,1.8-9.4,5.5-12.3
		c3.7-2.9,8.9-4.4,15.6-4.4c2.7,0,5.2,0.2,7.5,0.7C765.8,935.2,767.9,935.9,769.9,936.7z"/>
	<path class="st0" d="M808.6,934.1c8.1,0,14.7,2.8,19.9,8.3c5.2,5.6,7.8,12.7,7.8,21.4s-2.6,15.9-7.8,21.4s-11.8,8.3-19.9,8.3
		c-8.1,0-14.7-2.8-19.8-8.3c-5.2-5.5-7.8-12.7-7.8-21.4c0-8.8,2.6-15.9,7.7-21.4C793.8,936.9,800.5,934.1,808.6,934.1z M808.6,939.2
		c-5,0-8.9,2.2-11.9,6.7c-3,4.5-4.5,10.5-4.5,17.9c0,7.5,1.5,13.5,4.5,17.9c3,4.5,7,6.7,11.9,6.7c5,0,9-2.2,12-6.7
		c3-4.5,4.5-10.4,4.5-18c0-7.4-1.5-13.4-4.6-17.9C817.5,941.5,813.5,939.2,808.6,939.2z"/>
	<path class="st0" d="M844.3,992.6v-4.3l6.4-0.6l2-1.9v-43.1h-8.5V939l13.8-4.2h4.5v6.5c4.8-2.6,8.6-4.5,11.5-5.5
		c2.9-1.1,5.5-1.6,7.7-1.6c5.2,0,9.2,1.5,11.9,4.6c2.8,3.1,4.1,7.6,4.1,13.5v33.5l2,1.9l6.4,0.6v4.3h-26v-4.3l5.7-0.6l2-1.9v-31.5
		c0-4.5-0.9-7.6-2.8-9.5s-4.9-2.8-9.3-2.8c-1.9,0-4,0.3-6.2,1c-2.2,0.6-4.6,1.6-7.1,2.9v39.9l2,1.9l5.7,0.6v4.3H844.3z"/>
</g>
</svg>
