<?xml version="1.0" encoding="utf-8"?>
<!-- Generator: Adobe Illustrator 22.0.0, SVG Export Plug-In . SVG Version: 6.00 Build 0)  -->
<svg version="1.1" id="Layer_1" xmlns="http://www.w3.org/2000/svg" xmlns:xlink="http://www.w3.org/1999/xlink" x="0px" y="0px"
	 viewBox="0 0 108 109" style="enable-background:new 0 0 108 109;" xml:space="preserve">
<style type="text/css">
	.st0{enable-background:new    ;}
	.st1{fill:#FFFFFF;}
</style>
<title>local_phone - material</title>
<desc>Created with Sketch.</desc>
<g id="Page-1">
	<g id="layout_2.1-infopage-copy-3" transform="translate(-154.000000, -17.000000)">
		<g class="st0">
			<path class="st1" d="M175.6,64.3c4.4,8.4,10,16.1,16.8,22.9c6.8,6.8,14.4,12.4,22.9,16.8l13.2-13.2c0.8-0.9,1.7-1.4,2.9-1.7
				c1.2-0.3,2.3-0.2,3.3,0.3c6.3,2.2,13.4,3.3,21.3,3.3c1.6,0,3,0.6,4.2,1.7c1.2,1.2,1.7,2.5,1.7,4.2v21.2c0,1.6-0.6,3-1.7,4.2
				c-1.2,1.2-2.5,1.7-4.2,1.7c-13.8,0-27.1-2.7-39.7-8.1c-12.2-5.2-23-12.5-32.4-21.9c-9.4-9.4-16.7-20.2-21.9-32.4
				c-5.4-12.7-8.1-25.9-8.1-39.7c0-1.6,0.6-3,1.7-4.2s2.5-1.7,4.2-1.7h21.2c1.6,0,3,0.6,4.2,1.7s1.7,2.5,1.7,4.2
				c0,7.9,1.1,15,3.3,21.3c0.3,1.1,0.3,2.2,0.1,3.3c-0.2,1.2-0.7,2.1-1.6,2.9L175.6,64.3z"/>
		</g>
	</g>
</g>
</svg>
