<?xml version="1.0" encoding="utf-8"?>
<!-- Generator: Adobe Illustrator 22.0.0, SVG Export Plug-In . SVG Version: 6.00 Build 0)  -->
<svg version="1.1" id="Layer_1" xmlns="http://www.w3.org/2000/svg" xmlns:xlink="http://www.w3.org/1999/xlink" x="0px" y="0px"
	 viewBox="0 0 918.6 1016.6" style="enable-background:new 0 0 918.6 1016.6;" xml:space="preserve">
<style type="text/css">
	.st0{fill:#4D4D4D;}
</style>
<title>Asset 7</title>
<path class="st0" d="M350.2,322.6c-7.9-12.9-18.7-23.8-31.6-31.8c-13.4-8.5-30-15.5-49.7-20.8c42.4-9.1,74.3-24.5,95.6-46.2
	s32-49.4,32-83.2c0-47.5-15.6-82.7-46.6-105.7s-79-34.5-143.5-34.5H7.3v31.2l43.5,4.6L64,37.3v439.8l0.3,11l-56.9,3.8v32H193v-32
	l-58.7-3.8l0.1-11V291.5l2.7-0.4c17-0.7,29.3-1.1,37-1.1c36.3,0,63.3,6.1,81.2,18.3c17.9,12.2,32.1,34.2,42.6,65.9
	c2.8,8.4,6.9,20.8,13,37.3c10.8,29.5,19.7,55.1,26.6,74c0.1,0.4,6.2,18,6.4,18.3L701.8,0h-16.5c-0.3-0.8-301.7,426.9-302,426
	c-3.1-10.1-6.2-22.4-10.7-41.8C366.4,357.1,359,336.6,350.2,322.6z M177.4,253.8c-6.6,0-13.5-0.1-20.6-0.2
	c-7.1-0.1-14.6-0.3-22.5-0.6V35.5h37.8c50.6,0,87.3,8.8,109.9,26.3s34,45.7,34,84.6c0,37.6-11,64.9-33,81.9S225.8,253.8,177.4,253.8
	L177.4,253.8z"/>
<polygon class="st0" points="859.3,342.9 918.2,338.3 918.2,307.1 726.7,307.1 726.7,338.3 789.3,342.8 789.2,353.9 789.2,537.6 
	521.6,537.6 521.6,427.6 521.8,394.8 208.8,831.5 224.8,831.5 449.3,512.2 449.3,783.7 448.7,794.8 392.7,798.6 392.7,830.6 
	582.2,830.6 582.2,798.5 520.2,794.7 519.7,783.6 519.7,572.8 789.2,572.8 789.2,783.6 789.3,794.7 726.7,798.5 726.7,830.6 
	918.2,830.6 918.2,798.6 859.3,794.8 859.6,783.8 859.6,354 "/>
</svg>
