<?xml version="1.0" encoding="utf-8"?>
<!-- Generator: Adobe Illustrator 22.0.0, SVG Export Plug-In . SVG Version: 6.00 Build 0)  -->
<svg version="1.1" id="Layer_1" xmlns="http://www.w3.org/2000/svg" xmlns:xlink="http://www.w3.org/1999/xlink" x="0px" y="0px"
	 viewBox="0 0 1080 1080" style="enable-background:new 0 0 1080 1080;" xml:space="preserve">
<style type="text/css">
	.st0{display:none;fill:#4D4D4D;enable-background:new    ;}
	.st1{font-family:'Charter-Roman';}
	.st2{font-size:690px;}
	.st3{fill:#FFFFFF;}
	.st4{fill:url(#SVGID_1_);}
	.st5{fill:#FF7F18;}
	.st6{fill:#4D4D4D;}
</style>
<g id="lower-letter">
	<text transform="matrix(1 0 0 1 488.2734 946.6895)" class="st0 st1 st2">r</text>
	<polygon class="st3" points="301,955 915,86 361,34 3,1047 	"/>
	<g>
		
			<radialGradient id="SVGID_1_" cx="-183.979" cy="751.1849" r="0.2086" gradientTransform="matrix(2291.6716 0 0 -2218.7549 422058.5938 1667070)" gradientUnits="userSpaceOnUse">
			<stop  offset="0" style="stop-color:#423325;stop-opacity:0.98"/>
			<stop  offset="1" style="stop-color:#1C0A00"/>
		</radialGradient>
		<path class="st4" d="M231.9,237.6H861v611.9H231.9V237.6z"/>
		<path class="st5" d="M231.9,237.6H861v611.9H231.9V237.6z M203.3,878.1h686.3V209H203.3V878.1z M652.8,447.5
			c0-2.3,0.9-3.4,3.4-3.4h44.9c2.3,0,3.4,0.9,3.4,3.4v225.6c0,2.3-0.6,3.4-3.4,3.4h-44.3c-2.9,0-3.7-1.4-3.7-3.7V447.5L652.8,447.5
			L652.8,447.5z M649.6,382.6c0-18.3,12.9-29.2,29.2-29.2c17.4,0,29.2,11.7,29.2,29.2c0,18.9-12.3,29.2-29.7,29.2
			C661.6,411.7,649.6,401.4,649.6,382.6z M521,541.6c-8-31.7-26.9-100.9-34-134.4h-0.6c-6,33.5-21.2,90.1-33.2,134.4H521z
			 M441.5,587.9l-22.6,85.8c-0.6,2.3-1.4,2.9-4.3,2.9h-42c-2.9,0-3.4-0.9-2.9-4.3L450.9,388c1.4-5.1,2.3-9.7,2.9-23.7
			c0-2,0.9-2.9,2.3-2.9h60c2,0,2.9,0.6,3.4,2.9l90.9,308.5c0.6,2.3,0,3.7-2.3,3.7h-47.5c-2.3,0-3.7-0.6-4.3-2.6L533,587.9H441.5
			L441.5,587.9z"/>
	</g>
	<polyline class="st6" points="610,540 610,519 297,955.8 313,955.8 537.6,636.5 	"/>
</g>
<g id="upper-letter">
	<text transform="matrix(1 0 0 1 143.2734 587.6895)" class="st0 st1 st2">P</text>
	<path class="st6" d="M427,613c1.4,3.3,4.9,14.7,5,15l358-503.7h-16.5c-0.3-0.8-301.7,426.9-302,426"/>
	<polygon class="st3" points="426,628 789,124 840.5,197.6 276.4,984.8 148,1023 	"/>
</g>
<g id="Layer_3">
</g>
</svg>
