<?xml version="1.0" encoding="utf-8"?>
<!-- Generator: Adobe Illustrator 22.0.0, SVG Export Plug-In . SVG Version: 6.00 Build 0)  -->
<svg version="1.1" id="Layer_1" xmlns="http://www.w3.org/2000/svg" xmlns:xlink="http://www.w3.org/1999/xlink" x="0px" y="0px"
	 viewBox="0 0 1080 1080" style="enable-background:new 0 0 1080 1080;" xml:space="preserve">
<style type="text/css">
	.st0{fill:#4D4D4D;}
	.st1{font-family:'Charter-Roman';}
	.st2{font-size:110px;}
	.st3{display:none;fill:#4D4D4D;enable-background:new    ;}
	.st4{font-size:690px;}
	.st5{fill:#FFFFFF;}
	.st6{fill:url(#SVGID_1_);}
	.st7{fill:#FF7F18;}
</style>
<text transform="matrix(1 0 0 1 478.5999 790.0427)" class="st0 st1 st2">Illustrator</text>
<g id="lower-letter">
	<text transform="matrix(1 0 0 1 488.2734 946.6895)" class="st3 st1 st4">r</text>
	<polygon class="st5" points="301,955 915,86 361,34 3,1047 	"/>
	<g id="lower-letter_1_">
		<g>
			
				<radialGradient id="SVGID_1_" cx="985.5105" cy="184.4906" r="0.2086" gradientTransform="matrix(2291.6716 0 0 2218.7549 -2258027.25 -408964.5625)" gradientUnits="userSpaceOnUse">
				<stop  offset="0" style="stop-color:#423325;stop-opacity:0.98"/>
				<stop  offset="1" style="stop-color:#1C0A00"/>
			</radialGradient>
			<path class="st6" d="M542.4,564c-0.1-2.5,0-4.9,0.3-7.4c1.3-12.3,2.5-25,6.3-36.9c4-12.5,9.5-24.5,14.9-36.4
				c9.7-21.5,22.8-41.1,33.4-62.1c-1,2.3-2,4.6-2.9,7c8.1-18.9,16.8-37.2,27.5-55c8.7-14.4,18.5-28,26-43
				c6.9-13.9,12.8-28.3,20-42.1c3.5-6.6,7.2-13.2,11.6-19.3c7.6-10.6,15.6-21.8,25-31.1H231.9v611.9h89.8
				c3.3-5.8,7.5-11.2,12.7-15.9c11.2-11,21.6-22.7,31.4-35c14.3-19.2,27.8-38.9,42.2-58.1c19.4-25.9,39.2-50.2,61.8-73.3
				c19.3-19.7,38.9-39.1,58.5-58.6c5.8-5.8,11.6-11.6,17.4-17.4C544.1,582.2,542.7,573,542.4,564z"/>
			<path class="st7" d="M542.4,564c-0.1-2.5,0-4.9,0.3-7.4c1.3-12.3,2.5-25,6.3-36.9c2.6-8.1,5.8-16,9.3-23.8l-38.8-131.5
				c-0.5-2.3-1.4-2.9-3.4-2.9h-60c-1.4,0-2.3,0.9-2.3,2.9c-0.6,14-1.5,18.6-2.9,23.7l-81.2,284.3c-0.5,3.4,0,4.3,2.9,4.3h42
				c2.9,0,3.7-0.6,4.3-2.9l22.6-85.8H533l3.4,12.6c3.1-3.1,6.2-6.2,9.3-9.3C544.1,582.2,542.7,573,542.4,564z M453.2,541.6
				c12-44.3,27.2-100.9,33.2-134.4h0.6c7.1,33.5,26,102.7,34,134.4H453.2z"/>
			<path class="st7" d="M231.9,237.6h472.5c1-1,2.1-2,3.2-3c10.9-10.8,23.7-18.2,38.4-22.4c7.7-1,15.4-2.1,23.1-3.1
				c6.5-0.3,12.9,0.4,19.1,1.9c0.3-0.6,0.6-1.3,1-1.9H203.3v669.1h107.1c1.2-5.7,3.3-11.2,6-16.5c1.4-4.2,3.2-8.3,5.3-12.1h-89.8
				L231.9,237.6L231.9,237.6z"/>
		</g>
	</g>
	<polyline class="st0" points="610,540 610,519 297,955.8 313,955.8 537.6,636.5 	"/>
</g>
<g id="upper-letter">
	<text transform="matrix(1 0 0 1 143.2734 587.6895)" class="st3 st1 st4">P</text>
	<path class="st0" d="M427,613c1.4,3.3,4.9,14.7,5,15l358-503.7h-16.5c-0.3-0.8-301.7,426.9-302,426"/>
	<polygon class="st5" points="426,628 789,124 840.5,197.6 276.4,984.8 148,1023 	"/>
</g>
<g id="Layer_3">
</g>
</svg>
