<?xml version="1.0" encoding="utf-8"?>
<!-- Generator: Adobe Illustrator 22.0.0, SVG Export Plug-In . SVG Version: 6.00 Build 0)  -->
<svg version="1.1" id="Layer_1" xmlns="http://www.w3.org/2000/svg" xmlns:xlink="http://www.w3.org/1999/xlink" x="0px" y="0px"
	 viewBox="0 0 1080 1080" style="enable-background:new 0 0 1080 1080;" xml:space="preserve">
<style type="text/css">
	.st0{display:none;fill:#4D4D4D;enable-background:new    ;}
	.st1{font-family:'Charter-Roman';}
	.st2{font-size:690px;}
	.st3{fill:#FFFFFF;}
	.st4{fill:#4D4D4D;}
</style>
<g id="lower-letter">
	<text transform="matrix(1 0 0 1 488.2734 946.6895)" class="st0 st1 st2">r</text>
	<polygon class="st3" points="301,955 915,86 361,34 3,1047 	"/>
	<polyline class="st4" points="610,540 610,519 297,955.8 313,955.8 537.6,636.5 	"/>
</g>
<g>
	<path class="st3" d="M342.6,788.6c0.1-0.3,0.3-0.6,0.4-0.8C200.9,747.1,92.4,616.9,92.6,455.5c0.3-190.4,154-344.2,345-344
		c120.5,0.1,223.9,61,285.2,151.4c5.1-2.6,10.5-4.7,16.2-6.3c7.7-1,15.4-2.1,23.1-3.1c7.2-0.3,14.3,0.6,21.1,2.4V108H89.1v694H336
		C337.6,797.4,339.9,792.9,342.6,788.6z"/>
	<path d="M349.6,773.5c-141.4-39.1-243.9-170.4-241.4-322.9c2.9-178.2,149.7-324,329-323.5c113.6,0,213.3,56.8,272.4,144.1
		c4.2-3.2,8.6-5.9,13.2-8.3c-61.2-90.4-164.7-151.3-285.2-151.4c-191-0.2-344.7,153.5-345,344C92.4,616.9,200.9,747.1,343,787.7
		C345.2,783,347.4,778.2,349.6,773.5z"/>
	<path class="st3" d="M364.7,742.8c-3.6-0.9-7.2-1.8-10.9-2.9c29.4-85.5,58.6-170.4,87.8-255.2c0.5-0.1,1-0.2,1.5-0.3
		c14.8,40.6,29.6,81.2,44.5,121.9c6-5,12.2-9.8,18.5-14.6c10-8.3,18.9-17.3,27.6-27.1c6.7-7.5,13.3-15.1,19.8-22.9
		c-25.1-74.8-50.2-149.2-75.2-223.7c11.2-1.1,21.8-2,32.3-3.2c8.3-0.9,13.1-6.4,12.4-13.6c-0.7-7.2-5.7-11.2-14.2-10.8
		c-23.3,1-46.6,3-69.8,3c-27.9-0.1-55.8-1.9-83.7-3c-8.4-0.3-12.6,2.2-14.5,8.7c-2.3,7.7,2,14.5,10.1,15.5
		c8.7,1.1,17.4,2.1,26.2,2.6c4.2,0.2,5.8,1.8,7.2,5.5c14.1,39,28.4,77.9,42.5,117c0.8,2.2,1,5,0.3,7.2
		c-20.7,62.6-41.6,125.1-62.5,187.6c-0.1,0.4-0.5,0.8-1.3,2C327.6,530.1,292.1,424.3,256.3,318c10.9-1,20.9-1.9,30.9-3
		c9.5-1.1,14.7-6.5,13.8-13.8c-0.9-7.8-6.2-11.1-16.4-10.7c-29,1.1-58.1,2.1-87.1,3.1c-1.8,0.1-3.7,0-7.4,0
		c43.8-63.9,101.4-106.4,175.5-124.1c100.8-24,190.7-0.3,270.9,67.5c-5.7,0.7-9.8,0.9-13.7,1.8c-29.1,6.8-46.5,37.6-36.9,68.3
		c4.5,14.3,12.8,27.4,19.4,41.1c8.3,16.9,18.3,33.2,24.7,50.8c1.1,2.9,2,5.9,2.8,8.8c7.1-17.8,14-35.7,21.5-53.4
		c4.5-10.5,9.2-20.8,14.7-30.7c8.9-16.1,20.1-30.2,31.4-44.8c2.8-2.8,5.8-5.4,8.9-7.8c-59.1-87.3-158.8-144.1-272.4-144.1
		c-179.3-0.4-326.1,145.3-329,323.5c-2.5,152.5,100,283.8,241.4,322.9C354.4,763.2,359.4,752.9,364.7,742.8z M167.3,336.7
		c46.9,128.6,93.5,256.2,140.3,384.5C165.1,654.6,102.6,479.6,167.3,336.7z"/>
	<path d="M287.3,315c-10,1.2-20,2-30.9,3c35.7,106.3,71.3,212.1,107.1,318.5c0.8-1.3,1.1-1.6,1.3-2c20.9-62.5,41.7-125,62.5-187.6
		c0.7-2.1,0.5-5-0.3-7.2c-14.1-39-28.4-77.9-42.5-117c-1.4-3.7-3-5.3-7.2-5.5c-8.7-0.4-17.5-1.5-26.2-2.6c-8.1-1-12.4-7.8-10.1-15.5
		c1.9-6.5,6.2-9,14.5-8.7c27.9,1.1,55.8,2.9,83.7,3c23.3,0.1,46.5-2,69.8-3c8.5-0.4,13.5,3.6,14.2,10.8c0.7,7.3-4,12.7-12.4,13.6
		c-10.5,1.2-21,2.1-32.3,3.2c25.1,74.5,50.1,149,75.2,223.7c1-1.2,2.1-2.5,3.1-3.7c13-18,24.4-37.3,36.6-55.9
		c12.4-18.9,24-38,33.4-58.6c2.1-5.2,4.2-10.4,6.3-15.7c-0.8-2.9-1.7-5.9-2.8-8.8c-6.4-17.6-16.4-33.9-24.7-50.8
		c-6.7-13.6-15-26.7-19.4-41.1c-9.6-30.7,7.7-61.5,36.9-68.3c3.9-0.9,8-1.1,13.7-1.8c-80.2-67.8-170.1-91.5-270.9-67.5
		c-74.1,17.6-131.7,60.1-175.5,124.1c3.7,0,5.5,0.1,7.4,0c29-1,58.1-2,87.1-3.1c10.2-0.4,15.4,2.9,16.4,10.7
		C302,308.5,296.8,313.9,287.3,315z"/>
	<path d="M373.2,727c5.9-10.6,12.1-21,19-31c9.6-13.7,19.5-28.1,32-39.3c7.9-8.5,17.2-14.5,28-18c1.9-1.1,3.9-2.1,5.9-2.9
		c1.6-1.9,3.2-3.8,4.8-5.6c7.6-8.8,16-16.6,24.8-23.9c-14.9-40.7-29.7-81.3-44.5-121.9c-0.5,0.1-1,0.2-1.5,0.3
		c-29.2,84.9-58.4,169.7-87.8,255.2c3.6,1,7.2,2,10.9,2.9C367.5,737.5,370.3,732.2,373.2,727z"/>
	<path d="M167.3,336.7c46.9,128.6,93.5,256.2,140.3,384.5C165.1,654.6,102.6,479.6,167.3,336.7z"/>
</g>
<g id="upper-letter">
	<text transform="matrix(1 0 0 1 143.2734 587.6895)" class="st0 st1 st2">P</text>
	<path class="st4" d="M427,613c1.4,3.3,4.9,14.7,5,15l358-503.7h-16.5c-0.3-0.8-301.7,426.9-302,426"/>
	<polygon class="st3" points="426,628 789,124 840.5,197.6 276.4,984.8 148,1023 	"/>
</g>
<g id="Layer_3">
</g>
<g>
	<path class="st4" d="M563.4,792.7h-12.7l-12.1-42.6c-0.5-1.9-1.2-4.5-2-8c-0.8-3.5-1.3-5.9-1.4-7.3c-0.3,2.1-0.9,4.8-1.6,8.1
		s-1.3,5.8-1.8,7.4L520,792.7h-12.7L498,757l-9.4-35.6h11.9l10.2,41.6c1.6,6.7,2.7,12.6,3.4,17.7c0.4-2.8,0.9-5.9,1.6-9.3
		c0.7-3.4,1.4-6.2,2-8.3l11.6-41.7H541l11.9,41.9c1.1,3.9,2.3,9.7,3.6,17.4c0.5-4.7,1.7-10.6,3.5-17.8l10.2-41.5H582L563.4,792.7z"
		/>
	<path class="st4" d="M643.8,762.6c0,9.8-2.4,17.3-7.3,22.8s-11.8,8.1-20.7,8.1c-9.1,0-16-2.7-20.9-8.1s-7.3-13-7.3-22.9
		s2.4-17.5,7.3-22.8s11.8-8,20.9-8c8.9,0,15.8,2.7,20.7,8.1S643.8,752.9,643.8,762.6z M598,762.6c0,7.4,1.5,13,4.5,16.8
		s7.4,5.7,13.2,5.7c5.8,0,10.2-1.9,13.2-5.7s4.5-9.4,4.5-16.9c0-7.4-1.5-12.9-4.4-16.7s-7.3-5.7-13.1-5.7c-5.9,0-10.3,1.9-13.3,5.7
		S598,755.3,598,762.6z"/>
	<path class="st4" d="M666.5,768.8v24h-9.8v-60h16.9c7.7,0,13.5,1.4,17.2,4.3s5.6,7.3,5.6,13.1c0,7.5-3.9,12.8-11.6,16l16.9,26.5
		h-11.2l-14.4-24H666.5z M666.5,760.6h6.8c4.6,0,7.9-0.8,9.9-2.5s3.1-4.2,3.1-7.5c0-3.4-1.1-5.8-3.3-7.3s-5.6-2.2-10-2.2h-6.5V760.6
		z"/>
	<path class="st4" d="M759.1,762.2c0,9.9-2.7,17.5-8.2,22.7s-13.4,7.9-23.7,7.9h-16.8v-60h18.5c9.5,0,17,2.6,22.3,7.7
		S759.1,752.8,759.1,762.2z M748.8,762.5c0-14.4-6.7-21.5-20.1-21.5h-8.5v43.5h7C741.6,784.5,748.8,777.1,748.8,762.5z"/>
	<path class="st4" d="M811.7,750.9c0,6.3-2.1,11.1-6.2,14.4s-9.9,5-17.5,5h-6.2v22.4H772v-60h17.3c7.5,0,13.1,1.5,16.8,4.6
		S811.7,744.9,811.7,750.9z M781.8,762h5.2c5,0,8.7-0.9,11.1-2.6s3.5-4.5,3.5-8.2c0-3.4-1.1-6-3.2-7.7s-5.4-2.5-9.8-2.5h-6.8V762z"
		/>
	<path class="st4" d="M833.5,768.8v24h-9.8v-60h16.9c7.7,0,13.5,1.4,17.2,4.3s5.6,7.3,5.6,13.1c0,7.5-3.9,12.8-11.6,16l16.9,26.5
		h-11.2l-14.4-24H833.5z M833.5,760.6h6.8c4.6,0,7.9-0.8,9.9-2.5s3.1-4.2,3.1-7.5c0-3.4-1.1-5.8-3.3-7.3s-5.6-2.2-10-2.2h-6.5V760.6
		z"/>
	<path class="st4" d="M911.3,792.7h-33.9v-60h33.9v8.3h-24.1v16.3h22.6v8.2h-22.6v18.8h24.1V792.7z"/>
	<path class="st4" d="M958.8,776.4c0,5.3-1.9,9.5-5.8,12.6s-9.2,4.6-16,4.6s-12.3-1.1-16.7-3.2v-9.3c2.7,1.3,5.6,2.3,8.7,3
		s5.9,1.1,8.6,1.1c3.9,0,6.7-0.7,8.6-2.2s2.8-3.5,2.8-5.9c0-2.2-0.8-4.1-2.5-5.7s-5.2-3.4-10.5-5.5c-5.5-2.2-9.3-4.7-11.6-7.6
		s-3.4-6.3-3.4-10.3c0-5,1.8-8.9,5.3-11.8s8.3-4.3,14.3-4.3c5.7,0,11.5,1.3,17.1,3.8l-3.1,8c-5.3-2.2-10.1-3.4-14.3-3.4
		c-3.2,0-5.6,0.7-7.2,2.1s-2.5,3.2-2.5,5.5c0,1.6,0.3,2.9,1,4s1.7,2.2,3.2,3.1s4.2,2.3,8.1,3.9c4.4,1.8,7.6,3.5,9.7,5.1
		s3.6,3.4,4.5,5.4S958.8,773.7,958.8,776.4z"/>
	<path class="st4" d="M1005,776.4c0,5.3-1.9,9.5-5.8,12.6s-9.2,4.6-16,4.6s-12.3-1.1-16.7-3.2v-9.3c2.7,1.3,5.6,2.3,8.7,3
		s5.9,1.1,8.6,1.1c3.9,0,6.7-0.7,8.6-2.2s2.8-3.5,2.8-5.9c0-2.2-0.8-4.1-2.5-5.7s-5.2-3.4-10.5-5.5c-5.5-2.2-9.3-4.7-11.6-7.6
		s-3.4-6.3-3.4-10.3c0-5,1.8-8.9,5.3-11.8s8.3-4.3,14.3-4.3c5.7,0,11.5,1.3,17.1,3.8l-3.1,8c-5.3-2.2-10.1-3.4-14.3-3.4
		c-3.2,0-5.6,0.7-7.2,2.1s-2.5,3.2-2.5,5.5c0,1.6,0.3,2.9,1,4s1.7,2.2,3.2,3.1s4.2,2.3,8.1,3.9c4.4,1.8,7.6,3.5,9.7,5.1
		s3.6,3.4,4.5,5.4S1005,773.7,1005,776.4z"/>
</g>
</svg>
