<?xml version="1.0" encoding="utf-8"?>
<!-- Generator: Adobe Illustrator 22.0.0, SVG Export Plug-In . SVG Version: 6.00 Build 0)  -->
<svg version="1.1" id="Layer_1" xmlns="http://www.w3.org/2000/svg" xmlns:xlink="http://www.w3.org/1999/xlink" x="0px" y="0px"
	 viewBox="0 0 499 84" style="enable-background:new 0 0 499 84;" xml:space="preserve">
<style type="text/css">
	.st0{fill:none;stroke:#4D4D4D;}
	.st1{fill:#4D4D4D;}
	.st2{enable-background:new    ;}
	.st3{fill:#FFFFFF;}
</style>
<title>Group 2</title>
<desc>Created with Sketch.</desc>
<g id="Page-1">
	<g id="Artboard" transform="translate(-286.000000, -402.000000)">
		<g id="Group-2" transform="translate(286.000000, 402.000000)">
			<g id="Group">
				<rect id="Rectangle" x="0.5" y="0.5" class="st0" width="498" height="82"/>
				<rect id="Rectangle-2" x="1" y="1" class="st1" width="398" height="83"/>
			</g>
			<g class="st2">
				<path class="st3" d="M129.6,59V24.9H144c1.6,0,3,0.3,4.3,1c1.3,0.7,2.5,1.5,3.4,2.6s1.7,2.3,2.3,3.6c0.5,1.4,0.8,2.7,0.8,4.1
					c0,1.4-0.3,2.8-0.8,4.2c-0.5,1.4-1.2,2.6-2.2,3.6c-0.9,1.1-2,1.9-3.4,2.5c-1.3,0.6-2.8,1-4.3,1h-8.1V59H129.6z M136.2,41.8h7.7
					c1.2,0,2.2-0.5,3-1.5c0.8-1,1.2-2.3,1.2-4c0-0.9-0.1-1.6-0.4-2.3c-0.3-0.7-0.6-1.3-1-1.8c-0.4-0.5-0.9-0.8-1.5-1.1
					c-0.6-0.2-1.1-0.4-1.7-0.4h-7.4V41.8z"/>
				<path class="st3" d="M182.3,59h-6.4V44.9c0-2-0.4-3.4-1.1-4.4c-0.7-0.9-1.8-1.4-3.1-1.4c-0.6,0-1.2,0.1-1.8,0.4
					c-0.6,0.3-1.2,0.6-1.8,1.1s-1.1,1-1.6,1.7c-0.5,0.6-0.8,1.3-1.1,2.1V59h-6.4V24h6.4v14.5c0.9-1.6,2.2-2.9,3.8-3.8
					s3.3-1.3,5.3-1.3c1.6,0,3,0.3,4,0.8c1,0.6,1.8,1.3,2.4,2.2s1,2,1.2,3.2c0.2,1.2,0.3,2.4,0.3,3.6V59z"/>
				<path class="st3" d="M199.5,59.5c-2,0-3.9-0.4-5.5-1.1c-1.6-0.7-3-1.7-4.2-2.9c-1.1-1.2-2-2.6-2.6-4.2c-0.6-1.6-0.9-3.2-0.9-4.9
					c0-1.8,0.3-3.4,0.9-5c0.6-1.6,1.5-3,2.6-4.2c1.1-1.2,2.5-2.2,4.2-2.9c1.6-0.7,3.5-1.1,5.5-1.1c2,0,3.9,0.4,5.5,1.1
					c1.6,0.7,3,1.7,4.1,2.9c1.1,1.2,2,2.6,2.6,4.2c0.6,1.6,0.9,3.2,0.9,5c0,1.7-0.3,3.4-0.9,4.9c-0.6,1.6-1.5,3-2.6,4.2
					c-1.1,1.2-2.5,2.2-4.1,2.9C203.4,59.1,201.5,59.5,199.5,59.5z M192.9,46.5c0,1.1,0.2,2.1,0.5,3c0.3,0.9,0.8,1.7,1.4,2.4
					c0.6,0.7,1.3,1.2,2.1,1.6c0.8,0.4,1.7,0.6,2.6,0.6c0.9,0,1.8-0.2,2.6-0.6c0.8-0.4,1.5-0.9,2.1-1.6c0.6-0.7,1.1-1.5,1.4-2.4
					c0.3-0.9,0.5-2,0.5-3.1c0-1.1-0.2-2.1-0.5-3c-0.3-0.9-0.8-1.7-1.4-2.4c-0.6-0.7-1.3-1.2-2.1-1.6c-0.8-0.4-1.7-0.6-2.6-0.6
					c-0.9,0-1.8,0.2-2.6,0.6c-0.8,0.4-1.5,0.9-2.1,1.6c-0.6,0.7-1.1,1.5-1.4,2.4C193.1,44.4,192.9,45.4,192.9,46.5z"/>
				<path class="st3" d="M231.7,57.7c-0.9,0.4-1.9,0.8-3.2,1.2c-1.2,0.4-2.6,0.6-3.9,0.6c-0.9,0-1.7-0.1-2.5-0.3
					c-0.8-0.2-1.5-0.6-2.1-1.1c-0.6-0.5-1.1-1.1-1.4-1.9c-0.4-0.8-0.5-1.7-0.5-2.9V38.8h-3.3v-4.9h3.3v-8.2h6.4v8.2h5.3v4.9h-5.3
					v12.3c0,0.9,0.2,1.5,0.7,1.9c0.5,0.4,1,0.6,1.7,0.6c0.7,0,1.3-0.1,2-0.3c0.6-0.2,1.2-0.4,1.5-0.6L231.7,57.7z"/>
				<path class="st3" d="M246,59.5c-2,0-3.9-0.4-5.5-1.1c-1.6-0.7-3-1.7-4.2-2.9c-1.1-1.2-2-2.6-2.6-4.2c-0.6-1.6-0.9-3.2-0.9-4.9
					c0-1.8,0.3-3.4,0.9-5c0.6-1.6,1.5-3,2.6-4.2c1.1-1.2,2.5-2.2,4.2-2.9c1.6-0.7,3.5-1.1,5.5-1.1c2,0,3.9,0.4,5.5,1.1
					c1.6,0.7,3,1.7,4.1,2.9s2,2.6,2.6,4.2c0.6,1.6,0.9,3.2,0.9,5c0,1.7-0.3,3.4-0.9,4.9c-0.6,1.6-1.5,3-2.6,4.2
					c-1.1,1.2-2.5,2.2-4.1,2.9C249.9,59.1,248.1,59.5,246,59.5z M239.5,46.5c0,1.1,0.2,2.1,0.5,3c0.3,0.9,0.8,1.7,1.4,2.4
					c0.6,0.7,1.3,1.2,2.1,1.6c0.8,0.4,1.7,0.6,2.6,0.6c0.9,0,1.8-0.2,2.6-0.6c0.8-0.4,1.5-0.9,2.1-1.6c0.6-0.7,1.1-1.5,1.4-2.4
					c0.3-0.9,0.5-2,0.5-3.1c0-1.1-0.2-2.1-0.5-3s-0.8-1.7-1.4-2.4c-0.6-0.7-1.3-1.2-2.1-1.6c-0.8-0.4-1.7-0.6-2.6-0.6
					c-0.9,0-1.8,0.2-2.6,0.6c-0.8,0.4-1.5,0.9-2.1,1.6c-0.6,0.7-1.1,1.5-1.4,2.4C239.6,44.4,239.5,45.4,239.5,46.5z"/>
				<path class="st3" d="M273,59.5c-2.1,0-4.2-0.3-6.2-1s-3.7-1.6-5.2-2.9l2.4-4c1.5,1.1,3,1.9,4.5,2.5c1.5,0.6,2.9,0.8,4.3,0.8
					c1.3,0,2.3-0.2,3-0.7c0.7-0.5,1.1-1.2,1.1-2.1c0-0.9-0.4-1.6-1.3-2s-2.3-0.9-4.2-1.4c-1.6-0.4-3-0.9-4.2-1.3
					c-1.2-0.4-2.1-0.9-2.8-1.4c-0.7-0.5-1.2-1.1-1.5-1.8c-0.3-0.7-0.5-1.5-0.5-2.5c0-1.3,0.2-2.4,0.7-3.5c0.5-1,1.2-1.9,2.1-2.6
					c0.9-0.7,1.9-1.3,3.1-1.7c1.2-0.4,2.5-0.6,3.9-0.6c1.9,0,3.7,0.3,5.3,0.8c1.6,0.5,3.2,1.4,4.5,2.6l-2.6,3.9
					c-1.3-1-2.5-1.7-3.7-2.1c-1.2-0.4-2.4-0.7-3.6-0.7c-1.1,0-2,0.2-2.7,0.7c-0.7,0.4-1.1,1.2-1.1,2.2c0,0.4,0.1,0.8,0.3,1.1
					c0.2,0.3,0.5,0.5,0.8,0.8c0.4,0.2,0.9,0.4,1.5,0.6s1.4,0.4,2.3,0.6c1.7,0.4,3.2,0.9,4.4,1.3c1.2,0.4,2.2,1,3,1.5
					c0.8,0.6,1.4,1.2,1.7,2c0.4,0.8,0.6,1.7,0.6,2.7c0,2.5-0.9,4.4-2.7,5.8C278.6,58.8,276.2,59.5,273,59.5z"/>
				<path class="st3" d="M310.7,59h-6.4V44.9c0-2-0.4-3.4-1.1-4.4c-0.7-0.9-1.8-1.4-3.1-1.4c-0.6,0-1.2,0.1-1.8,0.4
					c-0.6,0.3-1.2,0.6-1.8,1.1s-1.1,1-1.6,1.7c-0.5,0.6-0.8,1.3-1.1,2.1V59h-6.4V24h6.4v14.5c0.9-1.6,2.2-2.9,3.8-3.8
					s3.3-1.3,5.3-1.3c1.6,0,3,0.3,4,0.8c1,0.6,1.8,1.3,2.4,2.2s1,2,1.2,3.2c0.2,1.2,0.3,2.4,0.3,3.6V59z"/>
				<path class="st3" d="M328,59.5c-2,0-3.9-0.4-5.5-1.1c-1.6-0.7-3-1.7-4.2-2.9c-1.1-1.2-2-2.6-2.6-4.2c-0.6-1.6-0.9-3.2-0.9-4.9
					c0-1.8,0.3-3.4,0.9-5c0.6-1.6,1.5-3,2.6-4.2s2.5-2.2,4.2-2.9c1.6-0.7,3.5-1.1,5.5-1.1s3.9,0.4,5.5,1.1c1.6,0.7,3,1.7,4.1,2.9
					s2,2.6,2.6,4.2c0.6,1.6,0.9,3.2,0.9,5c0,1.7-0.3,3.4-0.9,4.9c-0.6,1.6-1.5,3-2.6,4.2c-1.1,1.2-2.5,2.2-4.1,2.9
					C331.9,59.1,330,59.5,328,59.5z M321.4,46.5c0,1.1,0.2,2.1,0.5,3c0.3,0.9,0.8,1.7,1.4,2.4c0.6,0.7,1.3,1.2,2.1,1.6
					c0.8,0.4,1.7,0.6,2.6,0.6s1.8-0.2,2.6-0.6c0.8-0.4,1.5-0.9,2.1-1.6c0.6-0.7,1.1-1.5,1.4-2.4c0.3-0.9,0.5-2,0.5-3.1
					c0-1.1-0.2-2.1-0.5-3s-0.8-1.7-1.4-2.4c-0.6-0.7-1.3-1.2-2.1-1.6c-0.8-0.4-1.7-0.6-2.6-0.6s-1.8,0.2-2.6,0.6s-1.5,0.9-2.1,1.6
					c-0.6,0.7-1.1,1.5-1.4,2.4C321.6,44.4,321.4,45.4,321.4,46.5z"/>
				<path class="st3" d="M360.5,59.5c-2,0-3.7-0.4-5.2-1.3c-1.5-0.9-2.6-2.1-3.5-3.6v14.6h-6.4V33.8h5.6v4.3
					c0.9-1.5,2.1-2.6,3.6-3.5c1.5-0.8,3.2-1.3,5.1-1.3c1.7,0,3.3,0.3,4.7,1c1.4,0.7,2.7,1.6,3.7,2.8c1,1.2,1.9,2.5,2.4,4.1
					c0.6,1.6,0.9,3.3,0.9,5c0,1.8-0.3,3.5-0.8,5.1c-0.5,1.6-1.3,3-2.3,4.2c-1,1.2-2.1,2.1-3.5,2.8S362.1,59.5,360.5,59.5z M358.4,54
					c1,0,1.8-0.2,2.7-0.6c0.8-0.4,1.5-1,2.1-1.7c0.6-0.7,1-1.5,1.3-2.4c0.3-0.9,0.5-1.9,0.5-2.9c0-1.1-0.2-2-0.5-3
					c-0.4-0.9-0.8-1.7-1.5-2.4s-1.4-1.2-2.2-1.6s-1.8-0.6-2.8-0.6c-0.6,0-1.2,0.1-1.9,0.3c-0.6,0.2-1.2,0.5-1.8,0.9
					c-0.5,0.4-1,0.8-1.5,1.3c-0.4,0.5-0.8,1.1-1,1.7V49c0.6,1.4,1.5,2.6,2.6,3.6C355.7,53.5,357,54,358.4,54z"/>
			</g>
		</g>
	</g>
</g>
</svg>
