<?xml version="1.0" encoding="utf-8"?>
<!-- Generator: Adobe Illustrator 22.0.0, SVG Export Plug-In . SVG Version: 6.00 Build 0)  -->
<svg version="1.1" id="Layer_1" xmlns="http://www.w3.org/2000/svg" xmlns:xlink="http://www.w3.org/1999/xlink" x="0px" y="0px"
	 viewBox="0 0 1080 1080" style="enable-background:new 0 0 1080 1080;" xml:space="preserve">
<style type="text/css">
	.st0{fill:url(#SVGID_1_);}
	.st1{fill:#FF7F18;}
</style>
<g id="lower-letter">
	<g>
		
			<radialGradient id="SVGID_1_" cx="283.8168" cy="751.3147" r="0.2086" gradientTransform="matrix(2291.6716 0 0 -2218.7549 -649975.75 1667358)" gradientUnits="userSpaceOnUse">
			<stop  offset="0" style="stop-color:#423325;stop-opacity:0.98"/>
			<stop  offset="1" style="stop-color:#1C0A00"/>
		</radialGradient>
		<path class="st0" d="M231.9,237.6H861v611.9H231.9V237.6z"/>
		<path class="st1" d="M231.9,237.6H861v611.9H231.9V237.6z M203.3,878.1h686.3V209H203.3V878.1z M652.8,447.5
			c0-2.3,0.9-3.4,3.4-3.4h44.9c2.3,0,3.4,0.9,3.4,3.4v225.6c0,2.3-0.6,3.4-3.4,3.4h-44.3c-2.9,0-3.7-1.4-3.7-3.7V447.5H652.8
			L652.8,447.5z M649.6,382.6c0-18.3,12.9-29.2,29.2-29.2c17.4,0,29.2,11.7,29.2,29.2c0,18.9-12.3,29.2-29.7,29.2
			C661.6,411.7,649.6,401.4,649.6,382.6z M521,541.6c-8-31.7-26.9-100.9-34-134.4h-0.6c-6,33.5-21.2,90.1-33.2,134.4H521z
			 M441.5,587.9l-22.6,85.8c-0.6,2.3-1.4,2.9-4.3,2.9h-42c-2.9,0-3.4-0.9-2.9-4.3L450.9,388c1.4-5.1,2.3-9.7,2.9-23.7
			c0-2,0.9-2.9,2.3-2.9h60c2,0,2.9,0.6,3.4,2.9l90.9,308.5c0.6,2.3,0,3.7-2.3,3.7h-47.5c-2.3,0-3.7-0.6-4.3-2.6l-23.3-86H441.5
			L441.5,587.9z"/>
	</g>
</g>
</svg>
