<?xml version="1.0" encoding="utf-8"?>
<!-- Generator: Adobe Illustrator 22.0.0, SVG Export Plug-In . SVG Version: 6.00 Build 0)  -->
<svg version="1.1" id="Layer_1" xmlns="http://www.w3.org/2000/svg" xmlns:xlink="http://www.w3.org/1999/xlink" x="0px" y="0px"
	 viewBox="0 0 1080 1080" style="enable-background:new 0 0 1080 1080;" xml:space="preserve">
<style type="text/css">
	.st0{fill:#FF7A2E;}
	.st1{font-family:'Charter-Roman';}
	.st2{font-size:690px;}
	.st3{fill:#FFFFFF;}
	.st4{fill:#4D4D4D;}
</style>
<g id="lower-letter">
	<text transform="matrix(1 0 0 1 508.2734 946.6895)" class="st0 st1 st2">i</text>
	<polygon class="st3" points="301,955 915,86 361,34 3,1047 	"/>
	<polyline class="st4" points="610,540 610,519 297,955.8 313,955.8 537.6,636.5 	"/>
</g>
<g id="upper-letter">
	<g>
		<path class="st0" d="M435,559.4v28.3h86c-0.1-1-0.1-2-0.1-2.9c0-12.2,5.4-26.2,14.4-34.6c3.8-3.5,7-7.5,10.3-11.5L384.8,119h-45.5
			L177.6,551l-39.8,8.4v28.3H273v-28.3l-44.8-3.4l-7.1-9.8l49.2-131.7H433l49.9,131.7l-5.1,9.8L435,559.4z M282.1,382.8l68.1-191.4
			l71.1,191.4H282.1z"/>
	</g>
	<path class="st4" d="M427,613c1.4,3.3,4.9,14.7,5,15l358-503.7h-16.5c-0.3-0.8-301.7,426.9-302,426"/>
	<polygon class="st3" points="427,628 790,124 828,196 382,820 149,1023 	"/>
</g>
<g id="Layer_3">
</g>
</svg>
