<?xml version="1.0" encoding="utf-8"?>
<!-- Generator: Adobe Illustrator 22.0.0, SVG Export Plug-In . SVG Version: 6.00 Build 0)  -->
<svg version="1.1" id="Layer_1" xmlns="http://www.w3.org/2000/svg" xmlns:xlink="http://www.w3.org/1999/xlink" x="0px" y="0px"
	 viewBox="0 0 1080 1080" style="enable-background:new 0 0 1080 1080;" xml:space="preserve">
<style type="text/css">
	.st0{fill:#FDB300;}
	.st1{fill:#EA6C00;}
	.st2{fill:#FDAD00;}
	.st3{fill:#FDD231;}
	.st4{fill:#FEEEB7;}
	.st5{fill:#4D4D4D;}
	.st6{display:none;enable-background:new    ;}
	.st7{display:inline;fill:#4D4D4D;}
	.st8{fill:#FFFFFF;}
</style>
<g>
	<g transform="translate(-235.000000, 0.000000)">
		<g transform="translate(281.000000, 65.000000)">
			<path d="M338.9,499.8l-0.2-2.3h-2.3h-14.6h-2.6l0.1,2.6c1.2,29.1,21,48.4,56.1,48.4c33.5,0,56.3-17.3,56.3-43.5
				c0-14.2-4.9-24.2-14.4-31c-7.2-5.3-15.9-8.2-30.3-11.3c-1-0.2-2-0.4-3.2-0.7c-0.7-0.1-3.3-0.7-3.1-0.7
				c-26.1-5.4-34.4-10.2-34.4-24.2c0-14.5,12-23.8,32-23.8c19.5,0,31.9,11.8,32.5,30.5l0.1,2.4h2.5h14.4h2.6l-0.1-2.6
				c-0.7-29.1-20.3-48.6-52.1-48.6c-31.1,0-51.7,18.6-51.7,42.7c0,14.1,4.9,23.9,14.4,30.5c7.2,5,15.5,7.7,30.2,10.6
				c0.7,0.1,1.4,0.3,2.3,0.4c0.5,0.1,1.1,0.2,2.2,0.4c13.9,2.7,20,4.4,25.6,7.6c6.9,4,10.4,9.7,10.4,18.6c0,15.4-13,24.2-35.9,24.2
				C353.9,530.2,340.3,519.3,338.9,499.8z M472.5,392.8v-2.5H470h-14.3h-2.5v2.5v150.8v2.5h2.5H470h2.5v-2.5v-26.9l20.3-19.8
				l36.2,48.2l0.8,1h1.3h17.7h5.1l-3.1-4l-44.3-58.4l40.8-40.7l4.3-4.3h-6.1h-19.1h-1l-0.7,0.7l-52.1,52.6V392.8z M654,498.8h2.4
				l0.1-2.4c0-0.4,0.1-1.1,0.1-1.9c0-0.7,0.1-1.3,0.1-1.9c0-0.7,0-1.3,0-1.8c0-31.7-21.1-55-52.2-55c-31.1,0-53.2,24.8-53.2,56.2
				c0,32.3,21.1,56.4,53.4,56.4c24.4,0,43.2-14.4,50-36.3l1-3.3h-3.4h-15h-1.8l-0.6,1.7c-4.3,12-15.8,19.9-30,19.9
				c-18.6,0-31.5-12.7-33.9-31.7H654z M570.5,483.8c3.3-17.3,15.7-28.8,32.6-28.8c17.4,0,29.4,11.1,32.1,28.8H570.5z M718.9,455.6
				h2.5v-2.5v-12v-2.5h-2.5h-21V412v-2.5h-2.5h-14.3h-2.5v2.5v26.6h-17h-2.5v2.5v12v2.5h2.5h17v60.1c0,19.7,10.2,30.4,29,30.4
				c3.3,0,6.1-0.2,8.5-0.5c1.5-0.2,2.5-0.4,3-0.6l1.8-0.5v-1.9v-12.8v-3.1l-3,0.7c-0.1,0-0.4,0.1-0.7,0.1c-0.6,0.1-1.3,0.2-2,0.3
				c-1.8,0.3-3.6,0.4-5.3,0.5c-0.2,0-0.3,0-0.5,0c-8.2,0-11.5-3.9-11.5-13.5v-59.1H718.9z M778.7,548.5c26.5,0,45.2-17,49.9-41
				l0.6-3h-3h-14.3h-1.9l-0.5,1.9c-4,15.3-14.9,24.2-30.7,24.2c-19.6,0-33.2-15.7-33.2-38.3c0-22.7,13.5-38.5,33.2-38.5
				c15.7,0,26.6,8.8,30.7,24.2l0.5,1.9h1.9h14.3h3l-0.6-3c-4.7-24-23.4-41-49.9-41c-30.8,0-52.5,25-52.5,56.4
				C726.2,523.5,747.9,548.5,778.7,548.5z M865.1,392.8v-2.5h-2.5h-14.2h-2.5v2.5v150.8v2.5h2.5h14.2h2.5v-2.5v-60.5
				c0-18.4,11.2-29.2,28.2-29.2c16.2,0,24.3,9.4,24.3,27.2v62.5v2.5h2.5h14.2h2.5v-2.5v-65.3c0-25.2-15.5-41.9-41.2-41.9
				c-13.2,0-23.8,4.8-30.6,11.8V392.8z"/>
			<path class="st0" d="M82,370.7l64.8-6.8l64.8,6.8l50.1,66.7L146.8,570.1L31.8,437.4L82,370.7z"/>
			<g transform="translate(0.000000, 16.390805)">
				<polygon class="st1" points="78.4,421.9 146.8,553.7 31.8,421.9 				"/>
				<polygon class="st1" points="215.1,421.9 146.8,553.7 261.7,421.9 				"/>
				<polygon class="st2" points="77.3,421.9 213.8,421.9 145.6,553.7 				"/>
			</g>
			<polygon class="st3" points="144.4,363.9 80.9,370.8 77.3,438.2 			"/>
			<polygon class="st3" points="146.8,363.9 210.3,370.8 213.8,438.2 			"/>
			<polygon class="st2" points="261.7,438.2 211.4,371.1 215,438.2 			"/>
			<polygon class="st2" points="31.8,438.2 82.1,371.1 78.5,438.2 			"/>
			<polygon class="st4" points="145.6,363.9 77.3,438.2 213.8,438.2 			"/>
		</g>
	</g>
</g>
<g id="lower-letter">
	<polyline class="st5" points="610,540 610,519 297,955.8 313,955.8 537.6,636.5 	"/>
</g>
<g id="upper-letter">
	<g class="st6">
		<path class="st7" d="M151,379.7h76v12.4l-19.2,1.8l-5.3,4.4v112.2c0,21.7,4.4,37.4,13.1,47.2c8.7,9.7,22.8,14.6,42.2,14.6
			c19.2,0,33.1-4.9,41.9-14.8c8.8-9.8,13.2-25.5,13.2-47v-110l-5.9-5.6l-18.6-2.7v-12.4h65.5v12.4l-18.6,2.7l-5.6,5.6v112.8
			c0,14.8-1.1,26.2-3.2,34.1s-5.6,14.7-10.4,20.6c-6.2,7.4-14.9,13.1-26.1,17.3c-11.3,4.2-23.9,6.3-38.1,6.3
			c-14.2,0-26.9-2.1-38.1-6.3c-11.2-4.2-19.9-10-26-17.3c-4.9-6-8.5-12.8-10.5-20.6c-2.1-7.8-3.1-19.1-3.1-34.1v-115l-5.3-4.4
			l-17.7-1.8v-12.4H151z"/>
		<path class="st7" d="M361.8,379.7h74.6v12.4l-18.6,1.8l-2.4,3.8l40.6,63.7l44-62.5l-2.7-4.1l-18-2.7v-12.4h63.3v12.4l-20,3
			l-56.6,81l60.1,95.1l21,3.8v12.7h-78.4V575l20.7-2.1l2.3-4.4L448,498.1l-49,69.5l2,5.6l20.7,1.8v12.7h-66V575l20.4-4.1l62.2-87
			l-56-87.8l-20.4-3.9v-12.5H361.8z"/>
	</g>
	<path class="st5" d="M427,613c1.4,3.3,4.9,14.7,5,15l358-503.7h-16.5c-0.3-0.8-301.7,426.9-302,426"/>
	<polygon class="st8" points="427,628 790,124 860.2,165.2 648.8,464.9 391.4,824 149,1023 	"/>
</g>
<g id="Layer_3">
</g>
</svg>
