<?xml version="1.0" encoding="utf-8"?>
<!-- Generator: Adobe Illustrator 22.0.0, SVG Export Plug-In . SVG Version: 6.00 Build 0)  -->
<svg version="1.1" id="Layer_1" xmlns="http://www.w3.org/2000/svg" xmlns:xlink="http://www.w3.org/1999/xlink" x="0px" y="0px"
	 viewBox="0 0 1080 1080" style="enable-background:new 0 0 1080 1080;" xml:space="preserve">
<style type="text/css">
	.st0{display:none;fill:#4D4D4D;enable-background:new    ;}
	.st1{font-family:'Charter-Roman';}
	.st2{font-size:690px;}
	.st3{display:none;fill:#E0D5D5;}
	.st4{fill:#4D4D4D;}
	.st5{font-size:110px;}
	.st6{fill:#FFFFFF;}
	.st7{fill:url(#SVGID_1_);}
	.st8{fill:#FF408C;}
</style>
<g id="lower-letter">
	<text transform="matrix(1 0 0 1 488.2734 946.6895)" class="st0 st1 st2">r</text>
	<rect x="203.3" y="206.5" class="st3" width="669.1" height="669.1"/>
	<text transform="matrix(1 0 0 1 480.5999 790.0427)" class="st4 st1 st5">Indesign</text>
	<polygon class="st6" points="301,955 915,86 361,34 3,1047 	"/>
	<g id="lower-letter_2_">
		<g>
			
				<radialGradient id="SVGID_1_" cx="751.6126" cy="751.4457" r="0.2086" gradientTransform="matrix(2291.6716 0 0 -2218.7549 -1722010 1667646)" gradientUnits="userSpaceOnUse">
				<stop  offset="0" style="stop-color:#4B2B36;stop-opacity:0.98"/>
				<stop  offset="1" style="stop-color:#250012"/>
			</radialGradient>
			<path class="st7" d="M357.6,817.6c25.8-35.2,53.6-68.7,82.2-101.6c21.5-24.8,43.2-49.5,63.6-75.2c24.9-33.4,46-69.2,66.4-105.5
				c10-17.8,19.9-35.7,30.1-53.4c10-17.4,20.5-34.4,30.4-51.8c19.6-34.8,38.1-70.2,59.4-104c10.9-17.2,22.9-33.7,34.3-50.6
				c9-13.3,17.8-26.8,26.5-40.3H231.9V847h105.4C343.8,837,350.6,827.2,357.6,817.6z"/>
			<path class="st8" d="M450.9,359.5h-44.3c-2.3,0-3.7,0.8-3.7,3.7v307.1c0,2.3,0.8,3.7,3.7,3.7h44c3.1,0,3.7-0.8,3.7-3.7V362.8
				C454.3,360.3,453.2,359.5,450.9,359.5z"/>
			<path class="st8" d="M637.4,362.2v54.9c10.7-19.3,21.2-38.7,32.2-57.8h-29.3C638.8,359.3,637.4,360.2,637.4,362.2z"/>
			<path class="st8" d="M597.8,485.5c0.7-1.2,1.4-2.5,2.1-3.7c8.5-14.8,17.4-29.3,25.9-44.1c-1.1,0-2.3,0-3.6,0
				c-72.4,0-117.5,53.2-117.2,121.5c0,24.6,4.3,45.4,12.1,62.3c14.5-21.1,27.9-43,40.7-65.3C558,519.9,573.6,494.8,597.8,485.5z"/>
			<path class="st8" d="M322.7,870.6c4.7-8,9.5-15.9,14.6-23.6H231.9V235h518.5c2.8-4.4,5.6-8.8,8.3-13.2c3.1-5,6-10.2,8.8-15.4
				H203.3v669.1h116.5C320.7,873.9,321.7,872.2,322.7,870.6z"/>
		</g>
	</g>
	<polyline class="st4" points="610,540 610,519 297,955.8 313,955.8 537.6,636.5 	"/>
</g>
<g id="upper-letter">
	<text transform="matrix(1 0 0 1 143.2734 587.6895)" class="st0 st1 st2">P</text>
	<path class="st4" d="M427,613c1.4,3.3,4.9,14.7,5,15l358-503.7h-16.5c-0.3-0.8-301.7,426.9-302,426"/>
	<polygon class="st6" points="426,628 789,124 840.5,197.6 276.4,984.8 148,1023 	"/>
</g>
<g id="Layer_3">
</g>
</svg>
