<?xml version="1.0" encoding="utf-8"?>
<!-- Generator: Adobe Illustrator 22.0.0, SVG Export Plug-In . SVG Version: 6.00 Build 0)  -->
<svg version="1.1" id="Layer_1" xmlns="http://www.w3.org/2000/svg" xmlns:xlink="http://www.w3.org/1999/xlink" x="0px" y="0px"
	 viewBox="0 0 1080 1080" style="enable-background:new 0 0 1080 1080;" xml:space="preserve">
<style type="text/css">
	.st0{enable-background:new    ;}
	.st1{fill:#4D4D4D;}
	.st2{display:none;fill:#4D4D4D;enable-background:new    ;}
	.st3{font-family:'Charter-Roman';}
	.st4{font-size:690px;}
	.st5{fill:#FFFFFF;}
	.st6{fill:url(#SVGID_1_);}
	.st7{fill:#E579FF;}
</style>
<g>
	<g class="st0">
		<path class="st1" d="M490.5,716.7c5-0.8,11.8-1.5,20.5-1.5c10.3,0,17.6,2.4,22.2,6.4c4.2,3.6,6.9,8.9,6.9,15.6
			c0,6.7-2.1,12.2-6.2,16.1c-5.5,5.4-14.1,8.1-24.4,8.1c-3.4,0-6.5-0.1-9.1-0.9V790h-10V716.7z M500.4,752.5c2.5,0.8,5.7,1,9.5,1
			c12.7,0,20.2-5.8,20.2-15.8c0-10.5-8.3-14.7-19.2-14.7c-5,0-8.6,0.5-10.5,0.8V752.5z"/>
		<path class="st1" d="M556.8,768.1v22h-9v-55h15.5c7.1,0,12.3,1.3,15.8,4c3.4,2.7,5.1,6.7,5.1,12c0,6.8-3.6,11.7-10.7,14.6
			l15.5,24.3h-10.2l-13.2-22H556.8z M556.8,760.6h6.2c4.2,0,7.2-0.8,9.1-2.3c1.9-1.6,2.8-3.9,2.8-6.9c0-3.1-1-5.3-3-6.7
			s-5.1-2-9.2-2h-5.9V760.6z"/>
		<path class="st1" d="M628.2,790h-31.1v-55h31.1v7.6H606v15h20.7v7.5H606v17.3h22.1V790z"/>
		<path class="st1" d="M663.8,790l-15.9-45.9h-0.3c0.4,6.8,0.6,13.2,0.6,19.2V790H640v-55h12.7l15.3,43.7h0.2l15.7-43.7h12.7v55H688
			v-27.2c0-2.7,0.1-6.3,0.2-10.7c0.1-4.4,0.3-7,0.4-8h-0.3L671.7,790H663.8z"/>
		<path class="st1" d="M711.1,790v-55h9v55H711.1z"/>
		<path class="st1" d="M765.7,790h-31.1v-55h31.1v7.6h-22.1v15h20.7v7.5h-20.7v17.3h22.1V790z"/>
		<path class="st1" d="M786.6,768.1v22h-9v-55h15.5c7.1,0,12.3,1.3,15.8,4c3.4,2.7,5.1,6.7,5.1,12c0,6.8-3.6,11.7-10.7,14.6
			l15.5,24.3h-10.2l-13.2-22H786.6z M786.6,760.6h6.2c4.2,0,7.2-0.8,9.1-2.3c1.9-1.6,2.8-3.9,2.8-6.9c0-3.1-1-5.3-3-6.7
			c-2-1.4-5.1-2-9.2-2h-5.9V760.6z"/>
		<path class="st1" d="M857.9,790h-31.1v-55h31.1v7.6h-22.1v15h20.7v7.5h-20.7v17.3h22.1V790z"/>
	</g>
</g>
<g id="lower-letter">
	<text transform="matrix(1 0 0 1 488.2734 946.6895)" class="st2 st3 st4">r</text>
	<polygon class="st5" points="301,955 915,86 361,34 3,1047 	"/>
	<g>
		
			<radialGradient id="SVGID_1_" cx="751.6126" cy="751.4445" r="0.2086" gradientTransform="matrix(2291.6716 0 0 -2218.7549 -1722010 1667646)" gradientUnits="userSpaceOnUse">
			<stop  offset="0" style="stop-color:#4B2D4F;stop-opacity:0.98"/>
			<stop  offset="1" style="stop-color:#180024"/>
		</radialGradient>
		<path class="st6" d="M339.5,827.5c2.7-2.5,5.3-5.2,7.8-7.9c9.6-14.1,17.9-29.3,26.5-44c11.1-19,22.2-38.1,33.2-57.1
			c19.5-33.5,38.8-67.2,60-99.6c20.7-31.8,41.8-63.2,63.6-94.2c21.5-30.6,43.6-60.8,66.4-90.5c15.7-20.5,31.5-40.9,47.8-60.9
			c8.9-11,18.3-21.6,27.3-32.5c8-11.4,15.3-23.6,22.7-35.4c7.5-12,13.5-24.8,20.7-36.9c6.5-10.9,14.2-20.9,22.2-30.7H231.9v611.9
			h91.9C327.4,841.2,332.6,833.9,339.5,827.5z"/>
		<path class="st7" d="M457.8,360.9c-28.3,0-55.2,0.5-73.5,1.4c-2.3,0-2.9,1.4-2.9,3.4h-0.1v307.4c0,2.5,1.1,3.4,3.4,3.4h44
			c2.5,0,3.4-1.1,3.4-3.4V563.3c7.7,0,11.4,0.6,22.3,0.6c20,0,38.9-3,55.4-9.3c6.9-10.1,13.8-20.1,20.8-30.1
			c13.3-19,26.9-37.9,40.8-56.5c0.1-2.6,0.2-5.2,0.2-7.9C571.6,404.4,537,360.9,457.8,360.9z M455.2,518.1c-11.5,0-16.6,0-23.2-0.6
			V407.2c5.2-0.3,16.1-0.9,27.5-0.9c38.3,0,60.6,18.3,60.6,54.6C520.1,506.4,488.7,518.1,455.2,518.1z"/>
		<path class="st7" d="M321.5,855.5c0.7-2,1.4-4,2.3-6h-91.9V237.6h505.7c0.5-0.6,1-1.2,1.4-1.8c7.8-9.6,17.9-17,28-24
			c1.3-0.9,2.6-1.7,4-2.4c0.3-0.2,0.7-0.3,1-0.5H203.3V878h111.1C315.4,870.2,317.7,862.6,321.5,855.5z"/>
	</g>
	<polyline class="st1" points="610,540 610,519 297,955.8 313,955.8 537.6,636.5 	"/>
</g>
<g id="upper-letter">
	<text transform="matrix(1 0 0 1 143.2734 587.6895)" class="st2 st3 st4">P</text>
	<path class="st1" d="M427,613c1.4,3.3,4.9,14.7,5,15l358-503.7h-16.5c-0.3-0.8-301.7,426.9-302,426"/>
	<polygon class="st5" points="426,628 789,124 840.5,197.6 276.4,984.8 148,1023 	"/>
</g>
<g id="Layer_3">
</g>
</svg>
