<?xml version="1.0" encoding="utf-8"?>
<!-- Generator: Adobe Illustrator 22.0.0, SVG Export Plug-In . SVG Version: 6.00 Build 0)  -->
<svg version="1.1" id="Layer_1" xmlns="http://www.w3.org/2000/svg" xmlns:xlink="http://www.w3.org/1999/xlink" x="0px" y="0px"
	 viewBox="0 0 1080 1080" style="enable-background:new 0 0 1080 1080;" xml:space="preserve">
<style type="text/css">
	.st0{fill:#FFFFFF;}
	.st1{fill:#224B6F;}
</style>
<g id="lower-letter">
	<g>
		<path class="st0" d="M104.3,1097.4c0-371,0-742,0-1113c408.3,0,816.6,0,1224.9,0c0,371,0,742,0,1113
			C920.9,1097.4,512.6,1097.4,104.3,1097.4z M536.6,519.6c1.4,0.9,2.3,1.3,2.9,1.9c3.5,3.6,7.1,7.2,10.5,10.8
			c9.5,10,18.9,20,28.3,30c15.9,16.8,31.8,33.6,47.8,50.4c4.3,4.5,8.5,9,12.9,13.4c1.7,1.7,3.6,3.1,6.2,3.1c2.8,0,5.7-0.1,8.5,0
			c2.3,0.1,3.4-1.2,3.7-3.2c0.2-1,0.1-2,0.1-3c0-54.5,0-109.1,0-163.6c0-4.9-1.1-6-6-6c-6.8-0.1-13.6,0-20.3,0
			c-4.5,0-6.3,1.6-6.3,6.3c0.2,22.5,0.1,44.9,0.1,67.4c0,10.3,0,20.6,0,30.9c0,1.4,0.4,3.1-1.1,4.4c-0.9-0.7-1.9-1.3-2.6-2.1
			c-3.8-4-7.5-8-11.3-11.9c-15.4-16.3-30.8-32.6-46.3-48.9c-12.7-13.3-25.6-26.4-38-40c-4-4.4-8.4-6.2-14-6.2
			c-7.1,0-7.4,0.3-7.4,7.4c0,48.7,0,97.5,0,146.2c0,5.7,0,11.3,0,17c0,1.6,0.4,3.2,0.7,5.2c1.8,0,3.2,0,4.6,0c6.9,0,13.8,0,20.8,0
			c5.4,0,5.7-0.3,5.8-5.8c0-1.1,0-2.3,0-3.4c0-31.5,0-63,0-94.5C536.3,523.8,536.5,522,536.6,519.6z M900.6,630.9
			c7.3,0,14.6,0.5,21.9-1.3c5.3-1.3,10.5-2.8,15.6-4.8c8.8-3.5,16.7-8.5,23.6-15c7.8-7.4,14-16,18.2-26c2.4-5.7,4.5-11.4,5.6-17.5
			c1.2-7,3-14,2.9-21.2c0-6.6-0.2-13.1-1.4-19.7c-1.3-7.5-2.7-14.8-5.4-21.9c-5.7-15.4-15.2-27.9-28.7-37.4
			c-9.3-6.6-19.7-10.4-30.6-12.9c-8.7-2-17.6-2.2-26.5-1.9c-12.5,0.4-24.3,3.2-35.7,8.4c-16.9,7.6-29,20.1-37.2,36.3
			c-5.5,10.8-8.7,22.4-9.1,34.7c-0.1,2.9-0.8,5.8-1,8.8c-0.1,1.5,0,3.1,0.1,4.6c0.2,2.1,0.8,4.2,0.8,6.3c-0.1,6.4,1,12.7,2.5,18.8
			c2,7.8,4.9,15.5,9.1,22.5c5.5,9.1,12.1,17.1,20.8,23.4c7.1,5.1,14.7,9.3,23,11.9c5.2,1.6,10.5,3.1,15.9,3.8
			C890.1,631.4,895.3,630.9,900.6,630.9z M182.9,628.9c0.1-2.4,0.3-4.2,0.3-6c0-19.4,0-38.7,0-58.1c0-4.1,0.3-4.4,4.3-4.4
			c6.8-0.1,13.6,0,20.3,0c12.4,0,24.9,0,37.3,0c3.2,0,4.6-1.2,4.6-4.1c0.1-7.2,0.1-14.4,0-21.6c0-2.8-1.4-3.9-4.3-4c-1,0-2,0-3,0
			c-17.9,0-35.9,0-53.8,0c-1.7,0-3.5-0.3-5.3-0.5c-0.1-1.8-0.2-3-0.2-4.3c0-12.6,0-25.1,0-37.7c0-4.8,0.5-5.3,5.4-5.3
			c11.9,0,23.7,0,35.6,0c10.7,0,21.5,0,32.2,0c3.8,0,4.3-0.5,4.3-4.1c0.1-6.9,0.1-13.8,0-20.8c0-2.9-1.1-4-4-4.4
			c-1.4-0.2-2.8-0.1-4.2-0.1c-27.1,0-54.2,0-81.4,0c-4.7,0-9.3,0-14,0c-2,0-3.9,0.3-5.2,2c-1.1,13.5-0.5,169.8,0.7,173.5
			C162.5,628.9,172.5,628.9,182.9,628.9z M681.6,482.8c2.2,0,3.8,0,5.5,0c10.3,0,20.6,0,30.9,0c6.4,0,6.6,0.1,6.7,6.6
			c0,1.1,0,2.3,0,3.4c0,13.6,0,27.1,0,40.7c0,29.2,0,58.5,0,87.7c0,2.7-0.2,5.4,1.8,8.1c1.1,0,2.5,0,3.9,0c6.9,0,13.8-0.1,20.8,0
			c5,0.1,6.1-1.2,5.8-5.8c-0.1-1.3,0-2.5,0-3.8c0-43.5,0-87,0-130.5c0-1.9,0.2-3.9,0.3-6.1c2.5-0.1,4.5-0.2,6.6-0.2
			c10.9,0,21.7,0,32.6,0c4,0,4.4-0.5,4.5-4.3c0-4,0-7.9,0-11.9c0-3.8,0-7.6,0-11.8c-2.4-0.5-4.4-1.2-6.4-1.2
			c-35.9-0.1-71.7-0.1-107.6,0c-5,0-6,0.9-6.1,5.9c-0.1,6.1-0.1,12.1,0,18.2C680.8,479.1,681.2,480.6,681.6,482.8z M294.9,541.6
			c0,26.8,0,53.7,0,80.5c0,1.4,0,2.8,0.1,4.2c0.1,1.8,1.1,2.8,3,2.8c1,0,2,0,3,0c28.5,0,57.1,0,85.6,0c0.8,0,1.7,0,2.5,0
			c2.7-0.2,3.9-1.1,3.9-3.9c0.1-7.3,0.1-14.7,0-22c0-2.5-1.2-3.4-3.7-3.6c-1.1-0.1-2.3,0-3.4,0c-17.2,0-34.5,0-51.7,0
			c-1.1,0-2.3,0-3.4,0c-3.8-0.1-4.2-0.5-4.3-4.1c0-1.1,0-2.3,0-3.4c0-22.7,0-45.5,0-68.2c0-21.6,0-43.2,0-64.8
			c0-4.6-0.9-5.5-5.4-5.6c-4.1-0.1-8.2,0-12.3,0c-3,0-5.9-0.1-8.9,0c-4.1,0.1-4.9,1.1-5,5c0,1.1,0,2.3,0,3.4
			C294.9,488.5,294.9,515,294.9,541.6z M427.3,454.8c0,2.3,0,4.1,0,6c0,53.8,0,107.6,0,161.4c0,1,0,2,0,3c0.1,3.7,0.4,4.1,4.2,4.1
			c7.8,0,15.5,0,23.3,0c1.1,0,2.2-0.2,4-0.5c0-58,0-115.8,0-174c-2.1-0.5-3.8-1.2-5.5-1.2c-6.9-0.1-13.8-0.1-20.8,0
			C430.8,453.6,429.1,454.3,427.3,454.8z"/>
		<path class="st1" d="M536.6,519.6c-0.1,2.4-0.3,4.1-0.4,5.9c0,31.5,0,63,0,94.5c0,1.1,0,2.3,0,3.4c0,5.5-0.3,5.8-5.8,5.8
			c-6.9,0-13.8,0-20.8,0c-1.4,0-2.8,0-4.6,0c-0.3-1.9-0.7-3.6-0.7-5.2c-0.1-5.6,0-11.3,0-17c0-48.7,0-97.5,0-146.2
			c0-7.1,0.3-7.4,7.4-7.4c5.6,0,10,1.8,14,6.2c12.4,13.5,25.3,26.6,38,40c15.5,16.3,30.9,32.6,46.3,48.9c3.8,4,7.5,8,11.3,11.9
			c0.7,0.8,1.7,1.3,2.6,2.1c1.6-1.3,1.1-3,1.1-4.4c0-10.3,0-20.6,0-30.9c0-22.5,0.1-44.9-0.1-67.4c0-4.7,1.7-6.3,6.3-6.3
			c6.8,0,13.6-0.1,20.3,0c4.9,0.1,6,1.2,6,6c0,54.5,0,109.1,0,163.6c0,1,0.1,2-0.1,3c-0.4,2-1.4,3.3-3.7,3.2c-2.8-0.1-5.7-0.1-8.5,0
			c-2.6,0-4.5-1.4-6.2-3.1c-4.4-4.4-8.6-8.9-12.9-13.4c-15.9-16.8-31.9-33.6-47.8-50.4c-9.5-10-18.9-20-28.3-30
			c-3.5-3.7-7-7.3-10.5-10.8C538.9,520.9,538,520.6,536.6,519.6z"/>
		<path class="st1" d="M900.6,630.9c-5.2,0-10.5,0.5-15.6-0.1c-5.4-0.7-10.7-2.2-15.9-3.8c-8.3-2.6-15.9-6.8-23-11.9
			c-8.7-6.3-15.3-14.3-20.8-23.4c-4.2-7-7.1-14.7-9.1-22.5c-1.6-6.1-2.7-12.4-2.5-18.8c0-2.1-0.6-4.2-0.8-6.3
			c-0.2-1.5-0.3-3.1-0.1-4.6c0.3-2.9,0.9-5.8,1-8.8c0.3-12.3,3.6-23.9,9.1-34.7c8.2-16.2,20.3-28.7,37.2-36.3
			c11.4-5.1,23.2-8,35.7-8.4c8.9-0.3,17.8-0.1,26.5,1.9c10.9,2.5,21.4,6.3,30.6,12.9c13.4,9.5,22.9,21.9,28.7,37.4
			c2.6,7.1,4.1,14.5,5.4,21.9c1.2,6.6,1.3,13.1,1.4,19.7c0,7.2-1.8,14.2-2.9,21.2c-1,6.1-3.2,11.9-5.6,17.5
			c-4.2,10-10.4,18.5-18.2,26c-6.9,6.6-14.8,11.5-23.6,15c-5.1,2-10.3,3.5-15.6,4.8C915.2,631.4,907.8,630.8,900.6,630.9z
			 M845.2,540.8c-0.4,11.5,1.2,21.9,5.6,32c5,11.4,13,19.9,24.3,24.9c7.9,3.5,16.4,5,25,5.2c3.9,0.1,7.8-1,11.7-1.4
			c5.9-0.7,11.4-2.5,16.8-5.2c16.5-8.6,23.9-23.1,26.5-40.6c1.2-8,1.5-16.2,0.5-24.5c-1-7.9-2.5-15.5-5.9-22.7
			c-8.6-17.7-23-26.4-42.3-27.6c-3.7-0.2-7.3,0-11-0.1c-8.2-0.2-15.8,1.8-23.1,5.4c-12.6,6-20.1,16.3-24.5,29.1
			C845.8,523.7,844.7,532.5,845.2,540.8z"/>
		<path class="st1" d="M182.9,628.9c-10.5,0-20.4,0-30.3,0c-1.2-3.7-1.8-160-0.7-173.5c1.3-1.7,3.1-2,5.2-2c4.7,0,9.3,0,14,0
			c27.1,0,54.2,0,81.4,0c1.4,0,2.8-0.1,4.2,0.1c2.9,0.3,4,1.5,4,4.4c0.1,6.9,0.1,13.8,0,20.8c0,3.6-0.5,4-4.3,4.1
			c-10.7,0-21.5,0-32.2,0c-11.9,0-23.7,0-35.6,0c-4.9,0-5.4,0.5-5.4,5.3c0,12.6,0,25.1,0,37.7c0,1.3,0.1,2.5,0.2,4.3
			c1.8,0.2,3.6,0.5,5.3,0.5c17.9,0,35.9,0,53.8,0c1,0,2,0,3,0c2.9,0.1,4.2,1.2,4.3,4c0.1,7.2,0.1,14.4,0,21.6c0,2.9-1.5,4.1-4.6,4.1
			c-12.4,0-24.9,0-37.3,0c-6.8,0-13.6,0-20.3,0c-4,0-4.3,0.3-4.3,4.4c0,19.4,0,38.7,0,58.1C183.2,624.7,183,626.5,182.9,628.9z"/>
		<path class="st1" d="M681.6,482.8c-0.3-2.2-0.8-3.7-0.8-5.2c-0.1-6.1-0.1-12.1,0-18.2c0.1-4.9,1.1-5.9,6.1-5.9
			c35.9,0,71.7,0,107.6,0c2,0,4,0.7,6.4,1.2c0,4.3,0,8,0,11.8c0,4,0,7.9,0,11.9c0,3.9-0.5,4.3-4.5,4.3c-10.9,0.1-21.7,0-32.6,0
			c-2.1,0-4.2,0.2-6.6,0.2c-0.1,2.3-0.3,4.2-0.3,6.1c0,43.5,0,87,0,130.5c0,1.3-0.1,2.5,0,3.8c0.3,4.6-0.8,6-5.8,5.8
			c-6.9-0.2-13.8,0-20.8,0c-1.4,0-2.8,0-3.9,0c-2-2.7-1.8-5.5-1.8-8.1c0-29.2,0-58.5,0-87.7c0-13.6,0-27.1,0-40.7c0-1.1,0-2.3,0-3.4
			c-0.1-6.5-0.2-6.6-6.7-6.6c-10.3,0-20.6,0-30.9,0C685.4,482.8,683.7,482.8,681.6,482.8z"/>
		<path class="st1" d="M294.9,541.6c0-26.6,0-53.1,0-79.7c0-1.1,0-2.3,0-3.4c0.1-4,1-4.9,5-5c3-0.1,5.9,0,8.9,0
			c4.1,0,8.2-0.1,12.3,0c4.5,0.1,5.4,1,5.4,5.6c0,21.6,0,43.2,0,64.8c0,22.7,0,45.5,0,68.2c0,1.1,0,2.3,0,3.4c0.1,3.6,0.5,4,4.3,4.1
			c1.1,0,2.3,0,3.4,0c17.2,0,34.5,0,51.7,0c1.1,0,2.3,0,3.4,0c2.6,0.2,3.7,1.1,3.7,3.6c0.1,7.3,0.1,14.7,0,22c0,2.7-1.2,3.7-3.9,3.9
			c-0.8,0.1-1.7,0-2.5,0c-28.5,0-57.1,0-85.6,0c-1,0-2,0-3,0c-1.9,0-2.9-1-3-2.8c-0.1-1.4-0.1-2.8-0.1-4.2
			C294.9,595.3,294.9,568.4,294.9,541.6z"/>
		<path class="st1" d="M427.3,454.8c1.8-0.5,3.5-1.2,5.2-1.3c6.9-0.1,13.8-0.1,20.8,0c1.7,0,3.5,0.7,5.5,1.2c0,58.2,0,116,0,174
			c-1.8,0.2-2.9,0.4-4,0.5c-7.8,0-15.5,0.1-23.3,0c-3.8,0-4.1-0.4-4.2-4.1c0-1,0-2,0-3c0-53.8,0-107.6,0-161.4
			C427.3,459,427.3,457.1,427.3,454.8z"/>
		<path class="st0" d="M845.2,540.8c-0.6-8.3,0.6-17.1,3.5-25.6c4.4-12.8,11.9-23.1,24.5-29.1c7.3-3.5,14.9-5.6,23.1-5.4
			c3.7,0.1,7.4-0.1,11,0.1c19.3,1.2,33.7,10,42.3,27.6c3.5,7.2,4.9,14.8,5.9,22.7c1,8.3,0.7,16.4-0.5,24.5
			c-2.5,17.5-10,32-26.5,40.6c-5.3,2.8-10.8,4.6-16.8,5.2c-3.9,0.4-7.8,1.5-11.7,1.4c-8.6-0.2-17.2-1.7-25-5.2
			c-11.3-5.1-19.3-13.5-24.3-24.9C846.4,562.7,844.9,552.3,845.2,540.8z"/>
	</g>
</g>
</svg>
