<?xml version="1.0" encoding="utf-8"?>
<!-- Generator: Adobe Illustrator 22.0.0, SVG Export Plug-In . SVG Version: 6.00 Build 0)  -->
<svg version="1.1" id="Layer_1" xmlns="http://www.w3.org/2000/svg" xmlns:xlink="http://www.w3.org/1999/xlink" x="0px" y="0px"
	 viewBox="0 0 1080 1080" style="enable-background:new 0 0 1080 1080;" xml:space="preserve">
<style type="text/css">
	.st0{fill:#4D4D4D;}
	.st1{font-family:'Charter-Roman';}
	.st2{font-size:110px;}
	.st3{display:none;fill:#4D4D4D;enable-background:new    ;}
	.st4{font-size:690px;}
	.st5{fill:#FFFFFF;}
	.st6{fill:url(#SVGID_1_);}
	.st7{fill:#31C5F0;}
</style>
<text transform="matrix(1 0 0 1 481.5999 790.0427)" class="st0 st1 st2">Photoshop</text>
<g id="lower-letter">
	<text transform="matrix(1 0 0 1 488.2734 946.6895)" class="st3 st1 st4">r</text>
	<polygon class="st5" points="301,955 915,86 361,34 3,1047 	"/>
	<g>
		
			<radialGradient id="SVGID_1_" cx="283.8168" cy="751.3147" r="0.2086" gradientTransform="matrix(2291.6716 0 0 -2218.7549 -649975.75 1667358)" gradientUnits="userSpaceOnUse">
			<stop  offset="0" style="stop-color:#34364E;stop-opacity:0.98"/>
			<stop  offset="1" style="stop-color:#0C0824"/>
		</radialGradient>
		<path class="st6" d="M583.5,469.8c11-16.7,20.9-33.7,30.7-51c12.8-22.4,27.5-42.7,43.4-63c9.1-11.6,18.7-22.7,28-34.1
			c2.5-3.5,4.9-7,7.3-10.7c1.1-9.9,4.4-19.2,10-27.9c1.5-3.1,3.2-6,5.2-8.8c6.2-8.6,12.5-17.3,19.8-25c3.9-4.1,8.2-8,12.6-11.6
			H231.9v611.9H338c1.2-9.7,4.5-18.9,9.9-27.4C368,782.8,391,745,415.5,708.3c43.2-65,90.8-126.8,135.5-190.7
			C562.1,501.8,572.9,485.9,583.5,469.8z"/>
		<path class="st7" d="M231.9,237.6h508.5c6.7-5.5,13.8-10.6,20.5-15.6c6.6-4.9,13.5-9.2,20.6-13H203.3v669.1h133.3
			c-1.1-7.9-0.8-15.8,1-23.7c0.1-1.7,0.2-3.3,0.4-4.9H231.9V237.6z"/>
		<path class="st7" d="M449.2,360.9c-28.3,0-55.5,0.5-73.8,1.4c-2.3,0-6.3,1.4-6.3,3.4l0.2,307.1c0,2.5,1.1,3.4,3.4,3.4h43.7
			c2.5,0,3.4-1.1,3.4-3.4V563c7.7,0,11.4,0.6,22.3,0.6c64.6,0,117.2-31.2,117.2-103.8C559.3,404.4,528.4,360.9,449.2,360.9z
			 M443.2,518.1c-11.5,0-16.6,0-23.2-0.6V407.2c5.2-0.3,16.1-0.9,27.5-0.9c38,0,60.6,18.3,60.6,54.6
			C508.1,506.4,476.7,518.1,443.2,518.1z"/>
	</g>
	<polyline class="st0" points="610,540 610,519 297,955.8 313,955.8 537.6,636.5 	"/>
</g>
<g id="upper-letter">
	<text transform="matrix(1 0 0 1 143.2734 587.6895)" class="st3 st1 st4">P</text>
	<path class="st0" d="M427,613c1.4,3.3,4.9,14.7,5,15l358-503.7h-16.5c-0.3-0.8-301.7,426.9-302,426"/>
	<polygon class="st5" points="426,628 789,124 840.5,197.6 276.4,984.8 148,1023 	"/>
</g>
<g id="Layer_3">
</g>
</svg>
