<?xml version="1.0" encoding="utf-8"?>
<!-- Generator: Adobe Illustrator 22.0.0, SVG Export Plug-In . SVG Version: 6.00 Build 0)  -->
<svg version="1.1" id="Layer_1" xmlns="http://www.w3.org/2000/svg" xmlns:xlink="http://www.w3.org/1999/xlink" x="0px" y="0px"
	 viewBox="0 0 1080 1080" style="enable-background:new 0 0 1080 1080;" xml:space="preserve">
<style type="text/css">
	.st0{display:none;fill:#4D4D4D;enable-background:new    ;}
	.st1{font-family:'Charter-Roman';}
	.st2{font-size:690px;}
	.st3{fill:#FFFFFF;}
	.st4{fill:url(#SVGID_1_);}
	.st5{fill:#FF408C;}
	.st6{fill:#4D4D4D;}
</style>
<g id="lower-letter">
	<text transform="matrix(1 0 0 1 488.2734 946.6895)" class="st0 st1 st2">r</text>
	<polygon class="st3" points="301,955 915,86 361,34 3,1047 	"/>
	<g>
		
			<radialGradient id="SVGID_1_" cx="-183.979" cy="751.1849" r="0.2086" gradientTransform="matrix(2291.6716 0 0 -2218.7549 422058.5938 1667070)" gradientUnits="userSpaceOnUse">
			<stop  offset="0" style="stop-color:#4B2B36;stop-opacity:0.98"/>
			<stop  offset="1" style="stop-color:#250012"/>
		</radialGradient>
		<path class="st4" d="M231.9,237.6H861v611.9H231.9V237.6z"/>
		<path class="st5" d="M231.9,237.6H861v611.9H231.9V237.6z M203.3,878.1h686.3V209H203.3V878.1z M637.3,486.9
			c-4.3-2-10-2.9-16.9-2.9c-36.9,0-62.6,28.3-62.6,75.5c0,53.8,26.3,75.5,59.2,75.5c7.1,0,14.6-0.9,20.3-3.4V486.9z M622.2,440.3
			c6,0,9.4,0,15.2,0.6v-76.1c0-2,1.4-2.9,2.9-2.9h46.3c2.3,0,2.9,0.9,2.9,2.3v267.4c0,8,0,18,1.4,28.9c0,2-0.6,2.3-2.6,3.4
			c-24.6,11.7-50.6,16.9-74.9,16.9c-63.2,0-108.4-39.2-108.4-119C504.7,493.5,549.8,440.3,622.2,440.3L622.2,440.3z M454.3,672.8
			c0,2.9-0.6,3.7-3.7,3.7h-44c-2.9,0-3.7-1.4-3.7-3.7V365.7c0-2.9,1.4-3.7,3.7-3.7h44.3c2.3,0,3.4,0.9,3.4,3.4V672.8z"/>
	</g>
	<polyline class="st6" points="610,540 610,519 297,955.8 313,955.8 537.6,636.5 	"/>
</g>
<g id="upper-letter">
	<text transform="matrix(1 0 0 1 143.2734 587.6895)" class="st0 st1 st2">P</text>
	<path class="st6" d="M427,613c1.4,3.3,4.9,14.7,5,15l358-503.7h-16.5c-0.3-0.8-301.7,426.9-302,426"/>
	<polygon class="st3" points="426,628 789,124 840.5,197.6 276.4,984.8 148,1023 	"/>
</g>
<g id="Layer_3">
</g>
</svg>
