<?xml version="1.0" encoding="utf-8"?>
<!-- Generator: Adobe Illustrator 22.0.0, SVG Export Plug-In . SVG Version: 6.00 Build 0)  -->
<svg version="1.1" id="Layer_1" xmlns="http://www.w3.org/2000/svg" xmlns:xlink="http://www.w3.org/1999/xlink" x="0px" y="0px"
	 viewBox="0 0 1080 1080" style="enable-background:new 0 0 1080 1080;" xml:space="preserve">
<style type="text/css">
	.st0{display:none;fill:#4D4D4D;enable-background:new    ;}
	.st1{font-family:'Charter-Roman';}
	.st2{font-size:690px;}
	.st3{fill:#FFFFFF;}
	.st4{fill:url(#SVGID_1_);}
	.st5{fill:#E579FF;}
	.st6{fill:#4D4D4D;}
</style>
<g id="lower-letter">
	<text transform="matrix(1 0 0 1 488.2734 946.6895)" class="st0 st1 st2">r</text>
	<polygon class="st3" points="301,955 915,86 361,34 3,1047 	"/>
	<g>
		
			<radialGradient id="SVGID_1_" cx="49.9189" cy="184.7502" r="0.2086" gradientTransform="matrix(2291.6716 0 0 2218.7549 -113958.5703 -409540.5625)" gradientUnits="userSpaceOnUse">
			<stop  offset="0" style="stop-color:#4B2D4F;stop-opacity:0.98"/>
			<stop  offset="1" style="stop-color:#180024"/>
		</radialGradient>
		<path class="st4" d="M231.9,237.6H861v611.9H231.9V237.6z"/>
		<path class="st5" d="M231.9,237.6H861v611.9H231.9V237.6z M203.3,878.1h686.3V209H203.3V878.1z M615,491.5c0-3.4,0-11.7-1.4-27.7
			c0-2.3,0.3-2.9,2.3-3.7c17.4-7.1,58.3-19.7,104.7-19.7c2.3,0,3.4,0.6,3.4,2.9v41.5c0,2.3-0.9,2.9-3.1,2.9c-18-0.9-44,1.4-54,5.7
			v180.2c0,2.3-0.9,3.4-3.4,3.4h-44.9c-2.3,0-3.4-0.9-3.4-3.4L615,491.5L615,491.5z M432,517.5c6.6,0.6,11.7,0.6,23.2,0.6
			c33.5,0,64.9-11.7,64.9-57.2c0-36.3-22.3-54.6-60.6-54.6c-11.4,0-22.3,0.6-27.5,0.9L432,517.5L432,517.5z M381.4,365.7
			c0-2,0.6-3.4,2.9-3.4c18.3-0.9,45.2-1.4,73.5-1.4c79.2,0,113.8,43.5,113.8,99.2c0,72.6-52.6,103.8-117.2,103.8
			c-10.9,0-14.6-0.6-22.3-0.6v109.8c0,2.3-0.9,3.4-3.4,3.4h-44c-2.3,0-3.4-0.9-3.4-3.4V365.7H381.4L381.4,365.7z"/>
	</g>
	<polyline class="st6" points="610,540 610,519 297,955.8 313,955.8 537.6,636.5 	"/>
</g>
<g id="upper-letter">
	<text transform="matrix(1 0 0 1 143.2734 587.6895)" class="st0 st1 st2">P</text>
	<path class="st6" d="M427,613c1.4,3.3,4.9,14.7,5,15l358-503.7h-16.5c-0.3-0.8-301.7,426.9-302,426"/>
	<polygon class="st3" points="426,628 789,124 840.5,197.6 276.4,984.8 148,1023 	"/>
</g>
<g id="Layer_3">
</g>
</svg>
