<?xml version="1.0" encoding="utf-8"?>
<!-- Generator: Adobe Illustrator 22.0.0, SVG Export Plug-In . SVG Version: 6.00 Build 0)  -->
<svg version="1.1" id="Layer_1" xmlns="http://www.w3.org/2000/svg" xmlns:xlink="http://www.w3.org/1999/xlink" x="0px" y="0px"
	 viewBox="0 0 1080 1080" style="enable-background:new 0 0 1080 1080;" xml:space="preserve">
<style type="text/css">
	.st0{display:none;fill:#4D4D4D;enable-background:new    ;}
	.st1{font-family:'Charter-Roman';}
	.st2{font-size:690px;}
	.st3{fill:#FFFFFF;}
	.st4{fill:url(#SVGID_1_);}
	.st5{fill:#31C5F0;}
	.st6{fill:#4D4D4D;}
</style>
<g id="lower-letter">
	<text transform="matrix(1 0 0 1 488.2734 946.6895)" class="st0 st1 st2">r</text>
	<polygon class="st3" points="301,955 915,86 361,34 3,1047 	"/>
	<g>
		
			<radialGradient id="SVGID_1_" cx="-183.979" cy="751.1849" r="0.2086" gradientTransform="matrix(2291.6716 0 0 -2218.7549 422058.5938 1667070)" gradientUnits="userSpaceOnUse">
			<stop  offset="0" style="stop-color:#34364E;stop-opacity:0.98"/>
			<stop  offset="1" style="stop-color:#0C0824"/>
		</radialGradient>
		<path class="st4" d="M231.9,237.6H861v611.9H231.9V237.6z"/>
		<path class="st5" d="M231.9,237.6H861v611.9H231.9V237.6z M203.3,878.1h686.3V209H203.3V878.1z M666,483.5
			c-22.6,0-30.3,11.4-30.3,20.9c0,10.3,5.1,17.4,35.5,33.2c44.9,21.7,58.9,42.6,58.9,73.2c0,45.8-34.9,70.3-82.1,70.3
			c-24.9,0-46.3-5.1-58.6-12.3c-2-0.9-2.3-2.3-2.3-4.6v-42c0-2.9,1.4-3.7,3.4-2.3c18,11.7,38.6,16.9,57.5,16.9
			c22.6,0,32-9.4,32-22.3c0-10.3-6.6-19.4-35.5-34.3C603.9,560.7,587,541,587,508.1c0-36.9,28.9-67.5,78.9-67.5
			c24.6,0,41.7,3.7,51.2,8c2.3,1.4,2.9,3.7,2.9,5.7v39.2c0,2.3-1.4,3.7-4.3,2.9C703.1,488.4,684.5,483.5,666,483.5L666,483.5z
			 M420,517.5c6.6,0.6,11.7,0.6,23.2,0.6c33.5,0,64.9-11.7,64.9-57.2c0-36.3-22.6-54.6-60.6-54.6c-11.4,0-22.3,0.6-27.5,0.9V517.5z
			 M369.1,365.7c0-2,4-3.4,6.3-3.4c18.3-0.9,45.5-1.4,73.8-1.4c79.2,0,110.1,43.5,110.1,98.9c0,72.6-52.6,103.8-117.2,103.8
			c-10.9,0-14.6-0.6-22.3-0.6v109.8c0,2.3-0.9,3.4-3.4,3.4h-43.7c-2.3,0-3.4-0.9-3.4-3.4L369.1,365.7L369.1,365.7z"/>
	</g>
	<polyline class="st6" points="610,540 610,519 297,955.8 313,955.8 537.6,636.5 	"/>
</g>
<g id="upper-letter">
	<text transform="matrix(1 0 0 1 143.2734 587.6895)" class="st0 st1 st2">P</text>
	<path class="st6" d="M427,613c1.4,3.3,4.9,14.7,5,15l358-503.7h-16.5c-0.3-0.8-301.7,426.9-302,426"/>
	<polygon class="st3" points="426,628 789,124 840.5,197.6 276.4,984.8 148,1023 	"/>
</g>
<g id="Layer_3">
</g>
</svg>
