<?xml version="1.0" encoding="utf-8"?>
<!-- Generator: Adobe Illustrator 22.0.0, SVG Export Plug-In . SVG Version: 6.00 Build 0)  -->
<svg version="1.1" id="Layer_1" xmlns="http://www.w3.org/2000/svg" xmlns:xlink="http://www.w3.org/1999/xlink" x="0px" y="0px"
	 viewBox="0 0 1080 1080" style="enable-background:new 0 0 1080 1080;" xml:space="preserve">
<style type="text/css">
	.st0{display:none;fill:#4D4D4D;enable-background:new    ;}
	.st1{font-family:'Charter-Roman';}
	.st2{font-size:690px;}
	.st3{fill:#FFFFFF;}
	.st4{fill:#FFAE00;}
	.st5{fill:#EC6C00;}
	.st6{fill:#FFEFB4;}
	.st7{fill:#FED305;}
	.st8{fill:#4D4D4D;}
	.st9{font-family:'OpenSans-Regular';}
	.st10{font-size:100px;}
</style>
<g id="lower-letter">
	<text transform="matrix(1 0 0 1 488.2734 946.6895)" class="st0 st1 st2">r</text>
	<polygon class="st3" points="301,955 915,86 361,34 3,1047 	"/>
	<g>
		<title>Group</title>
		<desc>Created with Sketch.</desc>
		<g id="Page-1_1_">
			<g id="Sketch-Flat-Logo_1_" transform="translate(-9.000000, -28.000000)">
				<g id="Group_1_" transform="translate(9.000000, 28.000000)">
					<g id="Base_1_">
						<path class="st4" d="M731.8,280.1c0.4-5.2,0.7-10.4,0.9-15.7L562,246.1l-217.1,23.3L179,494.2l206.3,239.7
							c5.9-8.3,12.2-15.7,18.6-23.2c8.8-12.9,16.4-26.9,24.2-40.2c9.9-16.9,19.6-34,29.8-50.8c18.4-30.4,39.4-58.8,60.9-87.1
							c24.5-32.3,45.8-67.6,76.6-94.4c11.7-10.2,24-19.7,35.5-30.3c13-12,25.3-24.7,37.2-37.8c20-22,38.8-44.9,58.1-67.5
							C728.4,295.2,730.3,287.7,731.8,280.1z"/>
					</g>
					<g id="Bottom-Back_1_" transform="translate(0.000000, 160.000000)">
						<path class="st5" d="M403.9,550.7c8.8-12.9,16.4-26.9,24.2-40.2c9.9-16.9,19.6-34,29.8-50.8c18.4-30.4,39.4-58.8,60.9-87.1
							c9.6-12.6,18.7-25.7,28-38.6H179l206.4,239.8C391.3,565.5,397.6,558.2,403.9,550.7z"/>
					</g>
					<g id="Bottom-Mid_1_" transform="translate(100.000000, 160.000000)">
						<path class="st4" d="M328,510.5c9.9-16.9,19.6-34,29.8-50.8c18.4-30.4,39.4-58.8,60.9-87.1c9.6-12.6,18.7-25.7,28-38.6H234.1
							l92.1,179.7C326.8,512.7,327.4,511.6,328,510.5z"/>
					</g>
					<g id="Top-Mid_1_" transform="translate(100.000000, 0.000000)">
						<path class="st6" d="M495.3,438.2c11.7-10.2,24-19.7,35.5-30.3c13-12,25.3-24.7,37.2-37.8c1.3-1.5,2.7-3,4-4.5L462,245.9
							L234.1,494h212.7C461.4,474,476.6,454.5,495.3,438.2z"/>
					</g>
					<g id="Top-Side-Left_1_" transform="translate(0.000000, 15.000000)">
						<polygon id="Polygon_11_" class="st4" points="344.9,254.2 259.6,367.4 179,479 335.6,479 						"/>
					</g>
					<g id="Top-Left_1_" transform="translate(100.000000, 0.000000)">
						<polygon id="Polygon_9_" class="st7" points="244.9,269.4 234.1,494.2 462,246.1 						"/>
					</g>
					<g id="Top-Right_1_" transform="translate(247.000000, 0.000000)">
						<path class="st7" d="M484.8,280.1c0.4-5.2,0.7-10.4,0.9-15.7L315,246.1l109.9,119.6c18.5-20.6,36.1-42,54.1-63.1
							C481.4,295.2,483.3,287.7,484.8,280.1z"/>
					</g>
				</g>
			</g>
		</g>
	</g>
	<polyline class="st8" points="610,540 610,519 297,955.8 313,955.8 537.6,636.5 	"/>
</g>
<g id="upper-letter">
	<text transform="matrix(1 0 0 1 143.2734 587.6895)" class="st0 st1 st2">P</text>
	<path class="st8" d="M427,613c1.4,3.3,4.9,14.7,5,15l358-503.7h-16.5c-0.3-0.8-301.7,426.9-302,426"/>
	<polygon class="st3" points="426,628 789,124 838,194 378,843 148,1023 	"/>
</g>
<g id="Layer_3">
</g>
<text transform="matrix(1 0 0 1 485.5999 789.0427)" class="st8 st9 st10">Sketch</text>
</svg>
