<?xml version="1.0" encoding="utf-8"?>
<!-- Generator: Adobe Illustrator 22.0.0, SVG Export Plug-In . SVG Version: 6.00 Build 0)  -->
<svg version="1.1" id="Layer_1" xmlns="http://www.w3.org/2000/svg" xmlns:xlink="http://www.w3.org/1999/xlink" x="0px" y="0px"
	 viewBox="0 0 1080 1080" style="enable-background:new 0 0 1080 1080;" xml:space="preserve">
<style type="text/css">
	.st0{enable-background:new    ;}
	.st1{fill:#4D4D4D;}
	.st2{display:none;enable-background:new    ;}
	.st3{display:inline;fill:#4D4D4D;}
	.st4{fill:#FFFFFF;}
</style>
<g id="lower-letter">
	<g class="st0">
		<path class="st1" d="M84.4,611.1v-8.2l11.3-1l3.4-2.8V488.9l-3.4-2.8l-13-1.2v-8h45.6c20.1,0,34.3,3.2,42.8,9.5
			c8.5,6.3,12.7,16.8,12.7,31.3c0,13-4.7,23.4-14,31.2c-9.3,7.8-21.9,11.7-37.7,11.7c-1.6,0-3.6-0.1-6-0.2c-2.3-0.2-5.3-0.4-9-0.7
			l-0.1,39.4l3.4,2.8l14.3,1v8.2H84.4z M117.1,550c3.6,0.4,6.5,0.7,8.4,0.8c2,0.2,3.6,0.2,4.8,0.2c11.4,0,20.1-2.9,26-8.7
			c6-5.8,8.9-14.2,8.9-25.2c0-10.6-3.1-18.5-9.2-23.5s-15.7-7.6-28.6-7.6c-2.7,0-4.8,0-6.3,0.1c-1.5,0.1-2.8,0.2-4.2,0.3V550z"/>
		<path class="st1" d="M217.6,463.9h7.6v60.9c7.9-4.4,14.3-7.5,19.3-9.3c5-1.8,9.3-2.7,13-2.7c8.8,0,15.5,2.6,20.1,7.8
			c4.6,5.2,6.9,12.8,6.9,22.7v56.3l3.4,3.2l10.5,1v7.2H255v-7.2l9.4-1l3.4-3.2v-52.9c0-7.5-1.6-12.8-4.7-15.9s-8.3-4.7-15.5-4.7
			c-3.2,0-6.6,0.5-10.4,1.6s-7.7,2.7-12,4.9v67l3.5,3.2l9.5,1v7.2h-43.8v-7.2l10.8-1l3.4-3.2V477.3h-15.4V471L217.6,463.9z"/>
		<path class="st1" d="M356,512.8c13.6,0,24.8,4.7,33.5,14c8.7,9.3,13.1,21.3,13.1,36s-4.4,26.6-13.1,36c-8.8,9.3-19.9,14-33.4,14
			c-13.5,0-24.7-4.7-33.3-14c-8.7-9.3-13-21.3-13-36c0-14.7,4.3-26.7,12.9-36C331.2,517.5,342.3,512.8,356,512.8z M356,521.4
			c-8.3,0-15,3.8-20.1,11.3c-5,7.5-7.6,17.6-7.6,30.1c0,12.6,2.5,22.6,7.6,30.1s11.8,11.3,20,11.3c8.4,0,15.1-3.7,20.2-11.2
			c5.1-7.5,7.6-17.5,7.6-30.2c0-12.5-2.6-22.5-7.7-30.1C371,525.2,364.3,521.4,356,521.4z"/>
		<path class="st1" d="M427.6,526.9H415v-6.2l13.2-5.8l8.6-18.7h7.4v21.3h30.5v9.4h-30.5v52.7c0,8.7,1.2,14.5,3.6,17.4
			c2.4,3,6.7,4.4,13,4.4c2.1,0,4.4-0.1,6.7-0.4c2.3-0.3,4.7-0.7,7.2-1.3v7.4c-4.6,1.4-9,2.5-13.5,3.3c-4.4,0.7-8.7,1.1-12.8,1.1
			c-7.7,0-13.1-1.4-16.2-4.3c-3.1-2.9-4.6-8.2-4.6-15.9V526.9z"/>
		<path class="st1" d="M530.6,512.8c13.6,0,24.8,4.7,33.5,14c8.7,9.3,13.1,21.3,13.1,36s-4.4,26.6-13.1,36c-8.8,9.3-19.9,14-33.4,14
			c-13.5,0-24.7-4.7-33.3-14c-8.7-9.3-13-21.3-13-36c0-14.7,4.3-26.7,12.9-36C505.8,517.5,516.9,512.8,530.6,512.8z M530.6,521.4
			c-8.3,0-15,3.8-20.1,11.3c-5,7.5-7.6,17.6-7.6,30.1c0,12.6,2.5,22.6,7.6,30.1s11.8,11.3,20,11.3c8.4,0,15.1-3.7,20.2-11.2
			c5.1-7.5,7.6-17.5,7.6-30.2c0-12.5-2.6-22.5-7.7-30.1C545.6,525.2,538.9,521.4,530.6,521.4z"/>
		<path class="st1" d="M653.4,517.2v22.7h-9.9l-1.6-14.2c-2.7-1.4-5.2-2.5-7.6-3.2c-2.4-0.7-4.8-1.1-7.2-1.1
			c-5.2,0-9.3,1.3-12.2,3.8s-4.4,6.1-4.4,10.6c0,3.7,1.2,6.9,3.5,9.5c2.3,2.6,6.8,5.5,13.5,8.7c1,0.5,2.6,1.3,4.8,2.2
			c7.6,3.5,13,6.6,16.4,9.4c2.5,2,4.4,4.4,5.7,7.4c1.3,3,2,6.2,2,9.8c0,9.4-3.3,16.7-9.9,22c-6.6,5.3-15.8,8-27.5,8
			c-4.8,0-9.4-0.3-13.8-1s-8.4-1.7-12.2-3.2v-26h9.6l2.4,17c2.8,1.6,5.6,2.8,8.4,3.6s5.7,1.2,8.5,1.2c5.7,0,10.2-1.5,13.6-4.4
			c3.4-3,5.1-6.9,5.1-11.7c0-4-1.2-7.4-3.5-10s-7.9-6-16.8-10c-10-4.5-16.8-8.7-20.5-12.7c-3.6-4-5.4-8.9-5.4-14.7
			c0-8.9,3.1-15.8,9.3-20.7c6.2-4.9,14.9-7.3,26.2-7.3c4.5,0,8.7,0.4,12.5,1.1C646.4,514.7,650.1,515.8,653.4,517.2z"/>
		<path class="st1" d="M692.8,463.9h7.6v60.9c7.9-4.4,14.3-7.5,19.3-9.3c5-1.8,9.3-2.7,13-2.7c8.8,0,15.5,2.6,20.1,7.8
			c4.6,5.2,6.9,12.8,6.9,22.7v56.3l3.4,3.2l10.5,1v7.2h-43.6v-7.2l9.4-1l3.4-3.2v-52.9c0-7.5-1.6-12.8-4.7-15.9s-8.3-4.7-15.5-4.7
			c-3.2,0-6.6,0.5-10.4,1.6s-7.7,2.7-12,4.9v67l3.5,3.2l9.5,1v7.2h-43.8v-7.2l10.8-1l3.4-3.2V477.3h-15.4V471L692.8,463.9z"/>
		<path class="st1" d="M831.2,512.8c13.6,0,24.8,4.7,33.5,14c8.7,9.3,13.1,21.3,13.1,36s-4.4,26.6-13.1,36c-8.8,9.3-19.9,14-33.4,14
			c-13.5,0-24.7-4.7-33.3-14c-8.7-9.3-13-21.3-13-36c0-14.7,4.3-26.7,12.9-36C806.4,517.5,817.5,512.8,831.2,512.8z M831.2,521.4
			c-8.3,0-15,3.8-20.1,11.3c-5,7.5-7.6,17.6-7.6,30.1c0,12.6,2.5,22.6,7.6,30.1s11.8,11.3,20,11.3c8.4,0,15.1-3.7,20.2-11.2
			c5.1-7.5,7.6-17.5,7.6-30.2c0-12.5-2.6-22.5-7.7-30.1C846.2,525.2,839.5,521.4,831.2,521.4z"/>
		<path class="st1" d="M889.8,654.6v-7.1l10.8-1.1l3.1-3.1v-116h-14V521l23.2-7.1h7.5v10.9c5.5-4.1,10.6-7.1,15.4-9.1
			s9.5-2.9,14.1-2.9c11.2,0,20.4,4.4,27.6,13.1c7.2,8.7,10.8,20,10.8,33.8c0,15.7-4.5,28.3-13.5,37.7s-20.9,14.2-35.7,14.2
			c-2.5,0-5.3-0.1-8.4-0.4c-3.1-0.3-6.4-0.7-10.2-1.3l-0.1,33.4l3.4,3.1l12.8,1.1v7.1H889.8z M920.5,599.5c3.3,1.1,6.3,1.9,9.1,2.4
			c2.8,0.5,5.5,0.8,8,0.8c9.9,0,17.9-3.7,24-11.1c6.1-7.4,9.2-17.2,9.2-29.3c0-11.3-2.7-20.2-8-26.9c-5.3-6.6-12.4-10-21.2-10
			c-3.2,0-6.5,0.6-9.9,1.7c-3.4,1.1-7.1,2.8-11.2,5.2V599.5z"/>
	</g>
	<polyline class="st1" points="610,540 610,519 297,955.8 313,955.8 537.6,636.5 	"/>
</g>
<g id="upper-letter">
	<g class="st2">
		<path class="st3" d="M151,379.7h76v12.4l-19.2,1.8l-5.3,4.4v112.2c0,21.7,4.4,37.4,13.1,47.2c8.7,9.7,22.8,14.6,42.2,14.6
			c19.2,0,33.1-4.9,41.9-14.8c8.8-9.8,13.2-25.5,13.2-47v-110l-5.9-5.6l-18.6-2.7v-12.4h65.5v12.4l-18.6,2.7l-5.6,5.6v112.8
			c0,14.8-1.1,26.2-3.2,34.1s-5.6,14.7-10.4,20.6c-6.2,7.4-14.9,13.1-26.1,17.3c-11.3,4.2-23.9,6.3-38.1,6.3
			c-14.2,0-26.9-2.1-38.1-6.3c-11.2-4.2-19.9-10-26-17.3c-4.9-6-8.5-12.8-10.5-20.6c-2.1-7.8-3.1-19.1-3.1-34.1v-115l-5.3-4.4
			l-17.7-1.8v-12.4H151z"/>
		<path class="st3" d="M361.8,379.7h74.6v12.4l-18.6,1.8l-2.4,3.8l40.6,63.7l44-62.5l-2.7-4.1l-18-2.7v-12.4h63.3v12.4l-20,3
			l-56.6,81l60.1,95.1l21,3.8v12.7h-78.4V575l20.7-2.1l2.3-4.4L448,498.1l-49,69.5l2,5.6l20.7,1.8v12.7h-66V575l20.4-4.1l62.2-87
			l-56-87.8l-20.4-3.9v-12.5H361.8z"/>
	</g>
	<path class="st1" d="M427,613c1.4,3.3,4.9,14.7,5,15l358-503.7h-16.5c-0.3-0.8-301.7,426.9-302,426"/>
	<polygon class="st4" points="427,628 790,124 870.6,153.3 391.4,824 149,1023 	"/>
</g>
<g id="Layer_3">
</g>
</svg>
