<?xml version="1.0" encoding="utf-8"?>
<!-- Generator: Adobe Illustrator 22.0.0, SVG Export Plug-In . SVG Version: 6.00 Build 0)  -->
<svg version="1.1" id="Layer_1" xmlns="http://www.w3.org/2000/svg" xmlns:xlink="http://www.w3.org/1999/xlink" x="0px" y="0px"
	 viewBox="0 0 1080 1080" style="enable-background:new 0 0 1080 1080;" xml:space="preserve">
<style type="text/css">
	.st0{display:none;fill:#4D4D4D;enable-background:new    ;}
	.st1{font-family:'Charter-Roman';}
	.st2{font-size:690px;}
	.st3{fill:#FFFFFF;}
	.st4{fill:#DC395F;}
	.st5{fill:#4D4D4D;}
	.st6{enable-background:new    ;}
</style>
<g id="lower-letter">
	<text transform="matrix(1 0 0 1 488.2734 946.6895)" class="st0 st1 st2">r</text>
	<polygon class="st3" points="301,955 915,86 361,34 3,1047 	"/>
	<g>
		<path class="st4" d="M788.6,215.5c-1.8-4.4-3.2-8.8-3.9-13.5c-2.6-9.5-3.5-19.1-2.9-28.6h-505c-36.2,0-65.5,29.3-65.5,65.5v591.9
			c0,36.2,29.3,65.5,65.5,65.5h13.3c0-15.7,4-30.3,11.9-43.9c19.3-28.7,42.6-52.8,69.3-74.5c24.5-20,50-38.5,75.3-57.3
			c12.7-10.2,25-20.8,37.2-31.7c-0.2-1.8-0.3-3.6-0.4-5.5c-0.5-12,2-23.2,7.5-33.5c3.5-10.8,9.5-20.1,18-28
			c3.2-3.5,6.7-6.5,10.4-9.2c-2.2-2.3-4.1-4.9-5.7-7.7c-7.7-8.4-12.9-18.3-15.6-29.6c-1-7.7-2.1-15.4-3.1-23.1
			c-0.5-12,2-23.2,7.5-33.5c3.5-10.8,9.5-20.1,18-28c20.4-19.9,38.8-41.7,56.4-64c16.6-21.8,32.8-44,49.5-65.8
			c20.6-26.8,41.3-53.7,64.6-78.2c18.2-19.2,36.3-40.3,59.3-54c11.7-7,25-11.4,38.6-12.8C788.8,215.9,788.7,215.7,788.6,215.5z"/>
		<path class="st3" d="M483.5,683.5c-0.2-4.1,0-8.1,0.6-11.9c-18.8,11.5-36.2,11.5-39.6,10.7c-9.5-2.1-15.6-5.8-15.6-18.1
			c0-7.1,1.3-17.4,4.5-29.7l48.7-193.2H358.7l-15.6,57.5h51.3L361.3,634h0c-2.6,11-3.9,23-3.9,32.7c0,38.3,20.8,63.8,65,63.8
			c4.2,0,8.3-0.3,12.2-0.8c4-3,8-6,12-8.9c12.7-10.2,25-20.8,37.2-31.7C483.7,687.2,483.6,685.3,483.5,683.5z"/>
		<path class="st3" d="M520.4,490.9c16-15.7,30.8-32.4,45-49.8h-48.2l-15.6,57.5h11.6C515.4,496,517.8,493.4,520.4,490.9z"/>
		<path class="st3" d="M452.9,401c24,0,44.2-18.8,44.2-43.5c0-24.7-20.1-43.5-44.2-43.5s-44.2,18.8-44.2,43.5
			C408.8,382.1,428.9,401,452.9,401z"/>
	</g>
	<polyline class="st5" points="610,540 610,519 297,955.8 313,955.8 537.6,636.5 	"/>
</g>
<g id="upper-letter">
	<text transform="matrix(1 0 0 1 143.2734 587.6895)" class="st0 st1 st2">P</text>
	<path class="st5" d="M427,613c1.4,3.3,4.9,14.7,5,15l358-503.7h-16.5c-0.3-0.8-301.7,426.9-302,426"/>
	<polygon class="st3" points="426,628 789,124 838,194 378,843 148,1023 	"/>
</g>
<g id="Layer_3">
</g>
<g>
	<g class="st6">
		<path class="st5" d="M502.1,708.2V789h-9.2v-80.9h9.2V708.2z"/>
		<path class="st5" d="M564.6,789h-8l-32.8-50.3h-0.3c0.4,5.9,0.7,11.3,0.7,16.2V789h-6.4v-60h7.9l32.7,50.1h0.3
			c-0.1-0.7-0.2-3.1-0.4-7.1s-0.3-6.9-0.2-8.6V729h6.5V789z"/>
		<path class="st5" d="M615.3,729.1h7.5l-21.6,60h-6.9l-21.5-60h7.4l13.8,38.8c1.6,4.5,2.8,8.8,3.8,13c1-4.4,2.3-8.8,3.9-13.2
			L615.3,729.1z"/>
		<path class="st5" d="M631.1,789v-60h7v60H631.1z"/>
		<path class="st5" d="M688.3,773.1c0,5.3-1.9,9.4-5.7,12.3s-9,4.4-15.6,4.4c-7.1,0-12.6-0.9-16.4-2.7v-6.7c2.5,1,5.1,1.9,8,2.5
			s5.8,0.9,8.6,0.9c4.6,0,8.1-0.9,10.5-2.6s3.5-4.2,3.5-7.4c0-2.1-0.4-3.8-1.3-5.1s-2.2-2.5-4.2-3.7s-4.9-2.4-8.9-3.8
			c-5.6-2-9.6-4.4-12-7.1s-3.6-6.3-3.6-10.7c0-4.6,1.7-8.3,5.2-11s8.1-4.1,13.8-4.1c6,0,11.4,1.1,16.4,3.3l-2.2,6.1
			c-4.9-2.1-9.8-3.1-14.4-3.1c-3.7,0-6.6,0.8-8.7,2.4s-3.1,3.8-3.1,6.6c0,2.1,0.4,3.8,1.1,5.1s2.1,2.5,3.9,3.7s4.6,2.3,8.3,3.7
			c6.3,2.2,10.6,4.6,13,7.2S688.3,769,688.3,773.1z"/>
		<path class="st5" d="M700.6,789v-60h7v60H700.6z"/>
		<path class="st5" d="M776,759c0,9.6-2.4,17.1-7.3,22.6s-11.6,8.2-20.2,8.2c-8.8,0-15.6-2.7-20.4-8.1s-7.2-13-7.2-22.9
			c0-9.8,2.4-17.3,7.2-22.7s11.6-8.1,20.5-8.1c8.6,0,15.3,2.7,20.2,8.2S776,749.4,776,759z M728.3,759c0,8.1,1.7,14.3,5.2,18.5
			s8.5,6.3,15.1,6.3s11.7-2.1,15.1-6.3s5.1-10.3,5.1-18.5c0-8.1-1.7-14.2-5.1-18.4s-8.4-6.3-15-6.3s-11.7,2.1-15.2,6.3
			S728.3,751,728.3,759z"/>
		<path class="st5" d="M836.3,789h-8l-32.8-50.3h-0.3c0.4,5.9,0.7,11.3,0.7,16.2V789h-6.4v-60h7.9l32.7,50.1h0.3
			c-0.1-0.7-0.2-3.1-0.4-7.1s-0.3-6.9-0.2-8.6V729h6.5V789z"/>
	</g>
</g>
</svg>
