<?xml version="1.0" encoding="utf-8"?>
<!-- Generator: Adobe Illustrator 22.0.0, SVG Export Plug-In . SVG Version: 6.00 Build 0)  -->
<svg version="1.1" id="Layer_1" xmlns="http://www.w3.org/2000/svg" xmlns:xlink="http://www.w3.org/1999/xlink" x="0px" y="0px"
	 viewBox="0 0 1080 1080" style="enable-background:new 0 0 1080 1080;" xml:space="preserve">
<style type="text/css">
	.st0{display:none;fill:#4D4D4D;enable-background:new    ;}
	.st1{font-family:'Charter-Roman';}
	.st2{font-size:690px;}
	.st3{enable-background:new    ;}
	.st4{fill:#4D4D4D;}
	.st5{fill:#FFFFFF;}
	.st6{fill:url(#SVGID_1_);}
	.st7{fill:#AAD1EB;}
</style>
<g id="lower-letter">
	<text transform="matrix(1 0 0 1 488.2734 946.6895)" class="st0 st1 st2">r</text>
	<g>
		<g class="st3">
			<path class="st4" d="M490.5,715.9h10v65.8h35.3v8.4h-45.3V715.9z"/>
			<path class="st4" d="M545.5,790v-55h9v55H545.5z"/>
			<path class="st4" d="M591.5,760.2h20.2v27.6c-3.3,1.1-6.5,1.8-9.5,2.3c-3,0.5-6.3,0.7-9.9,0.7c-8.3,0-14.7-2.5-19.2-7.4
				c-4.5-4.9-6.8-11.9-6.8-20.8c0-8.8,2.5-15.8,7.6-20.8c5.1-5,12.1-7.5,21-7.5c5.7,0,11.2,1.1,16.3,3.3l-3.2,7.5
				c-4.5-2.1-8.9-3.1-13.4-3.1c-5.9,0-10.5,1.8-13.9,5.5c-3.4,3.7-5.1,8.7-5.1,15.1c0,6.7,1.5,11.8,4.6,15.3
				c3.1,3.5,7.5,5.2,13.3,5.2c2.9,0,6-0.4,9.3-1.1v-14.2h-11.4V760.2z"/>
			<path class="st4" d="M668.2,790h-9v-24.8h-25.3V790h-9v-55h9v22.5h25.3v-22.5h9V790z"/>
			<path class="st4" d="M701.7,790h-9v-47.3h-16.2v-7.7h41.3v7.7h-16.2V790z"/>
			<path class="st4" d="M735.3,768.1v22h-9v-55h15.5c7.1,0,12.3,1.3,15.8,4c3.4,2.7,5.1,6.7,5.1,12c0,6.8-3.6,11.7-10.7,14.6
				l15.5,24.3h-10.2l-13.2-22H735.3z M735.3,760.6h6.2c4.2,0,7.2-0.8,9.1-2.3c1.9-1.6,2.8-3.9,2.8-6.9c0-3.1-1-5.3-3-6.7
				s-5.1-2-9.2-2h-5.9V760.6z"/>
			<path class="st4" d="M824.3,762.5c0,8.9-2.2,15.9-6.7,20.9s-10.8,7.4-19,7.4c-8.3,0-14.7-2.5-19.1-7.4c-4.4-4.9-6.7-11.9-6.7-21
				c0-9.1,2.2-16,6.7-20.9c4.5-4.9,10.9-7.3,19.2-7.3c8.2,0,14.5,2.5,18.9,7.4C822.1,746.6,824.3,753.5,824.3,762.5z M782.3,762.5
				c0,6.8,1.4,11.9,4.1,15.4c2.7,3.5,6.8,5.2,12.1,5.2c5.3,0,9.4-1.7,12.1-5.2c2.7-3.5,4.1-8.6,4.1-15.5c0-6.7-1.3-11.9-4-15.3
				c-2.7-3.5-6.7-5.2-12.1-5.2c-5.4,0-9.5,1.7-12.2,5.2C783.7,750.6,782.3,755.7,782.3,762.5z"/>
			<path class="st4" d="M884.9,762.5c0,8.9-2.2,15.9-6.7,20.9c-4.5,5-10.8,7.4-19,7.4c-8.3,0-14.7-2.5-19.1-7.4
				c-4.4-4.9-6.7-11.9-6.7-21c0-9.1,2.2-16,6.7-20.9c4.5-4.9,10.9-7.3,19.2-7.3c8.2,0,14.5,2.5,18.9,7.4
				C882.7,746.6,884.9,753.5,884.9,762.5z M842.9,762.5c0,6.8,1.4,11.9,4.1,15.4c2.7,3.5,6.8,5.2,12.1,5.2c5.3,0,9.4-1.7,12.1-5.2
				s4.1-8.6,4.1-15.5c0-6.7-1.3-11.9-4-15.3c-2.7-3.5-6.7-5.2-12.1-5.2c-5.4,0-9.5,1.7-12.2,5.2
				C844.3,750.6,842.9,755.7,842.9,762.5z"/>
			<path class="st4" d="M920.5,790l-15.9-45.9h-0.3c0.4,6.8,0.6,13.2,0.6,19.2V790h-8.2v-55h12.7l15.3,43.7h0.2l15.7-43.7h12.7v55
				h-8.6v-27.2c0-2.7,0.1-6.3,0.2-10.7c0.1-4.4,0.3-7,0.4-8h-0.3L928.4,790H920.5z"/>
		</g>
	</g>
	<polygon class="st5" points="301,955 915,86 361,34 3,1047 	"/>
	<g>
		
			<radialGradient id="SVGID_1_" cx="517.7147" cy="184.6204" r="0.2086" gradientTransform="matrix(2291.6716 0 0 2218.7549 -1185992.875 -409252.5625)" gradientUnits="userSpaceOnUse">
			<stop  offset="0" style="stop-color:#39464D;stop-opacity:0.98"/>
			<stop  offset="1" style="stop-color:#05151F"/>
		</radialGradient>
		<path class="st6" d="M313.9,848.3c1.3-6.8,3.4-13.5,5.9-19.9c8-20.1,16.5-38.9,28-57.1c6.6-10.4,13.7-20.5,20.6-30.7
			c7.8-11.5,14.9-23.4,22.5-35.1c15.9-24.4,32.8-48.1,50.5-71.2c22.4-29.2,45.5-57.6,69.6-85.4c17.1-19.8,33.6-40,49.7-60.6
			c13.6-17.8,26.9-35.8,40-53.9c26.1-36.1,52-72.7,76.1-110.1c18.5-28.6,38-56.7,53.9-86.8H231.9v611.9h81.7
			C313.7,849.1,313.8,848.7,313.9,848.3z"/>
		<path class="st7" d="M445.8,628.8h-5.2V364c0-2.5-0.6-3.4-2.9-3.4h-45.2c-2.5,0-3.4,1.4-3.4,3.7v307.4c0,2.9,0.9,4.3,4.3,4.3v0.2
			h17.4c9.9-14.1,20.1-28.1,30.6-41.8C442.8,632.6,444.3,630.7,445.8,628.8z"/>
		<path class="st7" d="M313.6,849.5h-81.7V237.6h498.8c2.3-4.3,4.5-8.7,6.6-13.1c1.8-5.4,4-10.6,6.7-15.5H203.3v669.1h106.3
			C310.2,868.5,311.9,858.8,313.6,849.5z"/>
	</g>
	<polyline class="st4" points="610,540 610,519 297,955.8 313,955.8 537.6,636.5 	"/>
</g>
<g id="upper-letter">
	<text transform="matrix(1 0 0 1 143.2734 587.6895)" class="st0 st1 st2">P</text>
	<path class="st4" d="M427,613c1.4,3.3,4.9,14.7,5,15l358-503.7h-16.5c-0.3-0.8-301.7,426.9-302,426"/>
	<polygon class="st5" points="426,628 789,124 840.5,197.6 276.4,984.8 148,1023 	"/>
</g>
<g id="Layer_3">
</g>
</svg>
