<?xml version="1.0" encoding="utf-8"?>
<!-- Generator: Adobe Illustrator 22.0.0, SVG Export Plug-In . SVG Version: 6.00 Build 0)  -->
<svg version="1.1" id="Layer_1" xmlns="http://www.w3.org/2000/svg" xmlns:xlink="http://www.w3.org/1999/xlink" x="0px" y="0px"
	 viewBox="0 0 1080 1080" style="enable-background:new 0 0 1080 1080;" xml:space="preserve">
<style type="text/css">
	.st0{enable-background:new    ;}
	.st1{fill:#4D4D4D;}
	.st2{display:none;fill:#4D4D4D;enable-background:new    ;}
	.st3{font-family:'Charter-Roman';}
	.st4{font-size:690px;}
	.st5{fill:#FFFFFF;}
	.st6{fill:url(#SVGID_1_);}
	.st7{fill:#FF7F18;}
</style>
<g>
	<g class="st0">
		<path class="st1" d="M497.5,715.9V790h-10v-74.1H497.5z"/>
		<path class="st1" d="M513.7,790v-55h9v47.3h23.3v7.7H513.7z"/>
		<path class="st1" d="M555.4,790v-55h9v47.3h23.3v7.7H555.4z"/>
		<path class="st1" d="M640.2,735.1v35.6c0,4.1-0.9,7.6-2.6,10.7c-1.7,3-4.3,5.4-7.6,7c-3.3,1.6-7.2,2.5-11.8,2.5
			c-6.8,0-12.1-1.8-15.9-5.4c-3.8-3.6-5.7-8.6-5.7-14.9v-35.4h9v34.8c0,4.5,1.1,7.9,3.2,10c2.1,2.2,5.3,3.2,9.7,3.2
			c8.5,0,12.7-4.4,12.7-13.3v-34.7H640.2z"/>
		<path class="st1" d="M686,775.1c0,4.9-1.8,8.7-5.3,11.5c-3.5,2.8-8.4,4.2-14.6,4.2s-11.3-1-15.3-2.9v-8.5c2.5,1.2,5.2,2.1,8,2.8
			c2.8,0.7,5.4,1,7.9,1c3.6,0,6.2-0.7,7.9-2c1.7-1.4,2.5-3.2,2.5-5.5c0-2.1-0.8-3.8-2.3-5.2c-1.6-1.4-4.8-3.1-9.6-5.1
			c-5-2-8.5-4.3-10.6-7c-2.1-2.6-3.1-5.7-3.1-9.4c0-4.6,1.6-8.2,4.9-10.8c3.3-2.6,7.6-3.9,13.1-3.9c5.3,0,10.5,1.2,15.7,3.5
			l-2.9,7.3c-4.9-2.1-9.2-3.1-13.1-3.1c-2.9,0-5.1,0.6-6.6,1.9c-1.5,1.3-2.3,2.9-2.3,5c0,1.4,0.3,2.7,0.9,3.7c0.6,1,1.6,2,3,2.9
			c1.4,0.9,3.9,2.1,7.4,3.6c4,1.7,7,3.2,8.9,4.7c1.9,1.5,3.3,3.1,4.1,4.9C685.5,770.5,686,772.6,686,775.1z"/>
		<path class="st1" d="M715.6,790h-9v-47.3h-16.2v-7.7h41.3v7.7h-16.2V790z"/>
		<path class="st1" d="M749.2,768.1v22h-9v-55h15.5c7.1,0,12.3,1.3,15.8,4c3.4,2.7,5.1,6.7,5.1,12c0,6.8-3.6,11.7-10.7,14.6
			l15.5,24.3h-10.2l-13.2-22H749.2z M749.2,760.6h6.2c4.2,0,7.2-0.8,9.1-2.3c1.9-1.6,2.8-3.9,2.8-6.9c0-3.1-1-5.3-3-6.7
			s-5.1-2-9.2-2h-5.9V760.6z"/>
		<path class="st1" d="M823.5,790l-5.5-15.3h-21l-5.4,15.3h-9.5l20.6-55.2h9.8L833,790H823.5z M815.6,767l-5.2-15
			c-0.4-1-0.9-2.6-1.6-4.7c-0.7-2.2-1.1-3.7-1.4-4.7c-0.7,3.1-1.7,6.5-3,10.1l-5,14.3H815.6z"/>
		<path class="st1" d="M859.3,790h-9v-47.3h-16.2v-7.7h41.3v7.7h-16.2V790z"/>
		<path class="st1" d="M932.7,762.5c0,8.9-2.2,15.9-6.7,20.9c-4.5,5-10.8,7.4-19,7.4c-8.3,0-14.7-2.5-19.1-7.4
			c-4.4-4.9-6.7-11.9-6.7-21c0-9.1,2.2-16,6.7-20.9c4.5-4.9,10.9-7.3,19.2-7.3c8.2,0,14.5,2.5,18.9,7.4
			C930.4,746.6,932.7,753.5,932.7,762.5z M890.7,762.5c0,6.8,1.4,11.9,4.1,15.4c2.7,3.5,6.8,5.2,12.1,5.2c5.3,0,9.4-1.7,12.1-5.2
			s4.1-8.6,4.1-15.5c0-6.7-1.3-11.9-4-15.3c-2.7-3.5-6.7-5.2-12.1-5.2c-5.4,0-9.5,1.7-12.2,5.2C892.1,750.6,890.7,755.7,890.7,762.5
			z"/>
		<path class="st1" d="M953.5,768.1v22h-9v-55H960c7.1,0,12.3,1.3,15.8,4c3.4,2.7,5.1,6.7,5.1,12c0,6.8-3.6,11.7-10.7,14.6
			l15.5,24.3h-10.2l-13.2-22H953.5z M953.5,760.6h6.2c4.2,0,7.2-0.8,9.1-2.3c1.9-1.6,2.8-3.9,2.8-6.9c0-3.1-1-5.3-3-6.7
			s-5.1-2-9.2-2h-5.9V760.6z"/>
	</g>
</g>
<g id="lower-letter">
	<text transform="matrix(1 0 0 1 488.2734 946.6895)" class="st2 st3 st4">r</text>
	<polygon class="st5" points="301,955 915,86 361,34 3,1047 	"/>
	<g id="lower-letter_1_">
		<g>
			
				<radialGradient id="SVGID_1_" cx="1219.4084" cy="751.5743" r="0.2086" gradientTransform="matrix(2291.6716 0 0 -2218.7549 -2794044.5 1667934)" gradientUnits="userSpaceOnUse">
				<stop  offset="0" style="stop-color:#423325;stop-opacity:0.98"/>
				<stop  offset="1" style="stop-color:#1C0A00"/>
			</radialGradient>
			<path class="st6" d="M542.4,564c-0.1-2.5,0-4.9,0.3-7.4c1.3-12.3,2.5-25,6.3-36.9c4-12.5,9.5-24.5,14.9-36.4
				c9.7-21.5,22.8-41.1,33.4-62.1c-1,2.3-2,4.6-2.9,7c8.1-18.9,16.8-37.2,27.5-55c8.7-14.4,18.5-28,26-43
				c6.9-13.9,12.8-28.3,20-42.1c3.5-6.6,7.2-13.2,11.6-19.3c7.6-10.6,15.6-21.8,25-31.1H231.9v611.9h89.8
				c3.3-5.8,7.5-11.2,12.7-15.9c11.2-11,21.6-22.7,31.4-35c14.3-19.2,27.8-38.9,42.2-58.1c19.4-25.9,39.2-50.2,61.8-73.3
				c19.3-19.7,38.9-39.1,58.5-58.6c5.8-5.8,11.6-11.6,17.4-17.4C544.1,582.2,542.7,573,542.4,564z"/>
			<path class="st7" d="M542.4,564c-0.1-2.5,0-4.9,0.3-7.4c1.3-12.3,2.5-25,6.3-36.9c2.6-8.1,5.8-16,9.3-23.8l-38.8-131.5
				c-0.5-2.3-1.4-2.9-3.4-2.9h-60c-1.4,0-2.3,0.9-2.3,2.9c-0.6,14-1.5,18.6-2.9,23.7l-81.2,284.3c-0.5,3.4,0,4.3,2.9,4.3h42
				c2.9,0,3.7-0.6,4.3-2.9l22.6-85.8H533l3.4,12.6c3.1-3.1,6.2-6.2,9.3-9.3C544.1,582.2,542.7,573,542.4,564z M453.2,541.6
				c12-44.3,27.2-100.9,33.2-134.4h0.6c7.1,33.5,26,102.7,34,134.4H453.2z"/>
			<path class="st7" d="M231.9,237.6h472.5c1-1,2.1-2,3.2-3c10.9-10.8,23.7-18.2,38.4-22.4c7.7-1,15.4-2.1,23.1-3.1
				c6.5-0.3,12.9,0.4,19.1,1.9c0.3-0.6,0.6-1.3,1-1.9H203.3v669.1h107.1c1.2-5.7,3.3-11.2,6-16.5c1.4-4.2,3.2-8.3,5.3-12.1h-89.8
				L231.9,237.6L231.9,237.6z"/>
		</g>
	</g>
	<polyline class="st1" points="610,540 610,519 297,955.8 313,955.8 537.6,636.5 	"/>
</g>
<g id="upper-letter">
	<text transform="matrix(1 0 0 1 143.2734 587.6895)" class="st2 st3 st4">P</text>
	<path class="st1" d="M427,613c1.4,3.3,4.9,14.7,5,15l358-503.7h-16.5c-0.3-0.8-301.7,426.9-302,426"/>
	<polygon class="st5" points="426,628 789,124 840.5,197.6 276.4,984.8 148,1023 	"/>
</g>
<g id="Layer_3">
</g>
</svg>
