<?xml version="1.0" encoding="utf-8"?>
<!-- Generator: Adobe Illustrator 22.0.0, SVG Export Plug-In . SVG Version: 6.00 Build 0)  -->
<svg version="1.1" id="Layer_1" xmlns="http://www.w3.org/2000/svg" xmlns:xlink="http://www.w3.org/1999/xlink" x="0px" y="0px"
	 viewBox="0 0 1080 1080" style="enable-background:new 0 0 1080 1080;" xml:space="preserve">
<style type="text/css">
	.st0{display:none;fill:#4D4D4D;enable-background:new    ;}
	.st1{font-family:'Charter-Roman';}
	.st2{font-size:690px;}
	.st3{display:none;fill:#E0D5D5;}
	.st4{enable-background:new    ;}
	.st5{fill:#4D4D4D;}
	.st6{fill:#FFFFFF;}
	.st7{fill:url(#SVGID_1_);}
	.st8{fill:#FF408C;}
</style>
<g id="lower-letter">
	<text transform="matrix(1 0 0 1 488.2734 946.6895)" class="st0 st1 st2">r</text>
	<rect x="203.3" y="206.5" class="st3" width="669.1" height="669.1"/>
	<g>
		<g class="st4">
			<path class="st5" d="M499.5,715.9V790h-10v-74.1H499.5z"/>
			<path class="st5" d="M561.4,790h-11l-27-43.8h-0.3l0.2,2.4c0.4,4.7,0.5,8.9,0.5,12.8V790h-8.2v-55h10.9l27,43.6h0.2
				c0-0.6-0.2-2.7-0.3-6.3s-0.2-6.4-0.2-8.5v-28.8h8.2V790z"/>
			<path class="st5" d="M620.7,762c0,9.1-2.5,16-7.6,20.8c-5,4.8-12.3,7.2-21.8,7.2H576v-55h17c8.7,0,15.6,2.4,20.4,7.1
				C618.2,746.9,620.7,753.5,620.7,762z M611.2,762.3c0-13.2-6.2-19.7-18.5-19.7h-7.8v39.9h6.4C604.6,782.5,611.2,775.8,611.2,762.3
				z"/>
			<path class="st5" d="M663.6,790h-31.1v-55h31.1v7.6h-22.1v15h20.7v7.5h-20.7v17.3h22.1V790z"/>
			<path class="st5" d="M707.1,775.1c0,4.9-1.8,8.7-5.3,11.5c-3.5,2.8-8.4,4.2-14.6,4.2s-11.3-1-15.3-2.9v-8.5
				c2.5,1.2,5.2,2.1,8,2.8c2.8,0.7,5.4,1,7.9,1c3.6,0,6.2-0.7,7.9-2c1.7-1.4,2.5-3.2,2.5-5.5c0-2.1-0.8-3.8-2.3-5.2
				c-1.6-1.4-4.8-3.1-9.6-5.1c-5-2-8.5-4.3-10.6-7c-2.1-2.6-3.1-5.7-3.1-9.4c0-4.6,1.6-8.2,4.9-10.8c3.3-2.6,7.6-3.9,13.1-3.9
				c5.3,0,10.5,1.2,15.7,3.5l-2.9,7.3c-4.9-2.1-9.2-3.1-13.1-3.1c-2.9,0-5.1,0.6-6.6,1.9c-1.5,1.3-2.3,2.9-2.3,5
				c0,1.4,0.3,2.7,0.9,3.7c0.6,1,1.6,2,3,2.9c1.4,0.9,3.9,2.1,7.4,3.6c4,1.7,7,3.2,8.9,4.7c1.9,1.5,3.3,3.1,4.1,4.9
				C706.7,770.5,707.1,772.6,707.1,775.1z"/>
			<path class="st5" d="M717.8,790v-55h9v55H717.8z"/>
			<path class="st5" d="M763.8,760.2H784v27.6c-3.3,1.1-6.5,1.8-9.5,2.3c-3,0.5-6.3,0.7-9.9,0.7c-8.3,0-14.7-2.5-19.2-7.4
				c-4.5-4.9-6.8-11.9-6.8-20.8c0-8.8,2.5-15.8,7.6-20.8c5.1-5,12.1-7.5,21-7.5c5.7,0,11.2,1.1,16.3,3.3l-3.2,7.5
				c-4.5-2.1-8.9-3.1-13.4-3.1c-5.9,0-10.5,1.8-13.9,5.5c-3.4,3.7-5.1,8.7-5.1,15.1c0,6.7,1.5,11.8,4.6,15.3
				c3.1,3.5,7.5,5.2,13.3,5.2c2.9,0,6-0.4,9.3-1.1v-14.2h-11.4V760.2z"/>
			<path class="st5" d="M843,790h-11l-27-43.8h-0.3l0.2,2.4c0.4,4.7,0.5,8.9,0.5,12.8V790h-8.2v-55h10.9l27,43.6h0.2
				c-0.1-0.6-0.2-2.7-0.3-6.3s-0.2-6.4-0.2-8.5v-28.8h8.2V790z"/>
		</g>
	</g>
	<polygon class="st6" points="301,955 915,86 361,34 3,1047 	"/>
	<g id="lower-letter_2_">
		<g>
			
				<radialGradient id="SVGID_1_" cx="985.5105" cy="184.4894" r="0.2086" gradientTransform="matrix(2291.6716 0 0 2218.7549 -2258027.25 -408964.5625)" gradientUnits="userSpaceOnUse">
				<stop  offset="0" style="stop-color:#4B2B36;stop-opacity:0.98"/>
				<stop  offset="1" style="stop-color:#250012"/>
			</radialGradient>
			<path class="st7" d="M357.6,817.6c25.8-35.2,53.6-68.7,82.2-101.6c21.5-24.8,43.2-49.5,63.6-75.2c24.9-33.4,46-69.2,66.4-105.5
				c10-17.8,19.9-35.7,30.1-53.4c10-17.4,20.5-34.4,30.4-51.8c19.6-34.8,38.1-70.2,59.4-104c10.9-17.2,22.9-33.7,34.3-50.6
				c9-13.3,17.8-26.8,26.5-40.3H231.9V847h105.4C343.8,837,350.6,827.2,357.6,817.6z"/>
			<path class="st8" d="M450.9,359.5h-44.3c-2.3,0-3.7,0.8-3.7,3.7v307.1c0,2.3,0.8,3.7,3.7,3.7h44c3.1,0,3.7-0.8,3.7-3.7V362.8
				C454.3,360.3,453.2,359.5,450.9,359.5z"/>
			<path class="st8" d="M637.4,362.2v54.9c10.7-19.3,21.2-38.7,32.2-57.8h-29.3C638.8,359.3,637.4,360.2,637.4,362.2z"/>
			<path class="st8" d="M597.8,485.5c0.7-1.2,1.4-2.5,2.1-3.7c8.5-14.8,17.4-29.3,25.9-44.1c-1.1,0-2.3,0-3.6,0
				c-72.4,0-117.5,53.2-117.2,121.5c0,24.6,4.3,45.4,12.1,62.3c14.5-21.1,27.9-43,40.7-65.3C558,519.9,573.6,494.8,597.8,485.5z"/>
			<path class="st8" d="M322.7,870.6c4.7-8,9.5-15.9,14.6-23.6H231.9V235h518.5c2.8-4.4,5.6-8.8,8.3-13.2c3.1-5,6-10.2,8.8-15.4
				H203.3v669.1h116.5C320.7,873.9,321.7,872.2,322.7,870.6z"/>
		</g>
	</g>
	<polyline class="st5" points="610,540 610,519 297,955.8 313,955.8 537.6,636.5 	"/>
</g>
<g id="upper-letter">
	<text transform="matrix(1 0 0 1 143.2734 587.6895)" class="st0 st1 st2">P</text>
	<path class="st5" d="M427,613c1.4,3.3,4.9,14.7,5,15l358-503.7h-16.5c-0.3-0.8-301.7,426.9-302,426"/>
	<polygon class="st6" points="426,628 789,124 840.5,197.6 276.4,984.8 148,1023 	"/>
</g>
<g id="Layer_3">
</g>
</svg>
