<?xml version="1.0" encoding="utf-8"?>
<!-- Generator: Adobe Illustrator 22.0.0, SVG Export Plug-In . SVG Version: 6.00 Build 0)  -->
<svg version="1.1" id="Layer_1" xmlns="http://www.w3.org/2000/svg" xmlns:xlink="http://www.w3.org/1999/xlink" x="0px" y="0px"
	 viewBox="0 0 1080 1080" style="enable-background:new 0 0 1080 1080;" xml:space="preserve">
<style type="text/css">
	.st0{fill:url(#SVGID_1_);}
	.st1{fill:#E579FF;}
</style>
<g id="lower-letter">
	<g>
		
			<radialGradient id="SVGID_1_" cx="517.7147" cy="184.6204" r="0.2086" gradientTransform="matrix(2291.6716 0 0 2218.7549 -1185992.875 -409252.5625)" gradientUnits="userSpaceOnUse">
			<stop  offset="0" style="stop-color:#4B2D4F;stop-opacity:0.98"/>
			<stop  offset="1" style="stop-color:#180024"/>
		</radialGradient>
		<path class="st0" d="M231.9,237.6H861v611.9H231.9V237.6z"/>
		<path class="st1" d="M231.9,237.6H861v611.9H231.9V237.6z M203.3,878.1h686.3V209H203.3V878.1z M615,491.5c0-3.4,0-11.7-1.4-27.7
			c0-2.3,0.3-2.9,2.3-3.7c17.4-7.1,58.3-19.7,104.7-19.7c2.3,0,3.4,0.6,3.4,2.9v41.5c0,2.3-0.9,2.9-3.1,2.9c-18-0.9-44,1.4-54,5.7
			v180.2c0,2.3-0.9,3.4-3.4,3.4h-44.9c-2.3,0-3.4-0.9-3.4-3.4L615,491.5L615,491.5z M432,517.5c6.6,0.6,11.7,0.6,23.2,0.6
			c33.5,0,64.9-11.7,64.9-57.2c0-36.3-22.3-54.6-60.6-54.6c-11.4,0-22.3,0.6-27.5,0.9L432,517.5L432,517.5z M381.4,365.7
			c0-2,0.6-3.4,2.9-3.4c18.3-0.9,45.2-1.4,73.5-1.4c79.2,0,113.8,43.5,113.8,99.2c0,72.6-52.6,103.8-117.2,103.8
			c-10.9,0-14.6-0.6-22.3-0.6v109.8c0,2.3-0.9,3.4-3.4,3.4h-44c-2.3,0-3.4-0.9-3.4-3.4V365.7H381.4L381.4,365.7z"/>
	</g>
</g>
</svg>
