<?xml version="1.0" encoding="utf-8"?>
<!-- Generator: Adobe Illustrator 22.0.0, SVG Export Plug-In . SVG Version: 6.00 Build 0)  -->
<svg version="1.1" id="Layer_1" xmlns="http://www.w3.org/2000/svg" xmlns:xlink="http://www.w3.org/1999/xlink" x="0px" y="0px"
	 viewBox="0 0 1080 1080" style="enable-background:new 0 0 1080 1080;" xml:space="preserve">
<style type="text/css">
	.st0{enable-background:new    ;}
	.st1{fill:#4D4D4D;}
	.st2{display:none;fill:#4D4D4D;enable-background:new    ;}
	.st3{font-family:'Charter-Roman';}
	.st4{font-size:690px;}
	.st5{fill:#FFFFFF;}
	.st6{fill:url(#SVGID_1_);}
	.st7{fill:#31C5F0;}
</style>
<g>
	<g class="st0">
		<path class="st1" d="M490.5,716.7c5-0.8,11.8-1.5,20.5-1.5c10.3,0,17.6,2.4,22.2,6.4c4.2,3.6,6.9,8.9,6.9,15.6
			c0,6.7-2.1,12.2-6.2,16.1c-5.5,5.4-14.1,8.1-24.4,8.1c-3.4,0-6.5-0.1-9.1-0.9V790h-10V716.7z M500.4,752.5c2.5,0.8,5.7,1,9.5,1
			c12.7,0,20.2-5.8,20.2-15.8c0-10.5-8.3-14.7-19.2-14.7c-5,0-8.6,0.5-10.5,0.8V752.5z"/>
		<path class="st1" d="M591.2,790h-9v-24.8h-25.3V790h-9v-55h9v22.5h25.3v-22.5h9V790z"/>
		<path class="st1" d="M654.5,762.5c0,8.9-2.2,15.9-6.7,20.9c-4.5,5-10.8,7.4-19,7.4c-8.3,0-14.7-2.5-19.1-7.4
			c-4.4-4.9-6.7-11.9-6.7-21c0-9.1,2.2-16,6.7-20.9c4.5-4.9,10.9-7.3,19.2-7.3c8.2,0,14.5,2.5,18.9,7.4
			C652.2,746.6,654.5,753.5,654.5,762.5z M612.5,762.5c0,6.8,1.4,11.9,4.1,15.4c2.7,3.5,6.8,5.2,12.1,5.2c5.3,0,9.4-1.7,12.1-5.2
			s4.1-8.6,4.1-15.5c0-6.7-1.3-11.9-4-15.3c-2.7-3.5-6.7-5.2-12.1-5.2c-5.4,0-9.5,1.7-12.2,5.2C613.9,750.6,612.5,755.7,612.5,762.5
			z"/>
		<path class="st1" d="M685.3,790h-9v-47.3h-16.2v-7.7h41.3v7.7h-16.2V790z"/>
		<path class="st1" d="M758.7,762.5c0,8.9-2.2,15.9-6.7,20.9c-4.5,5-10.8,7.4-19,7.4c-8.3,0-14.7-2.5-19.1-7.4
			c-4.4-4.9-6.7-11.9-6.7-21c0-9.1,2.2-16,6.7-20.9c4.5-4.9,10.9-7.3,19.2-7.3c8.2,0,14.5,2.5,18.9,7.4
			C756.4,746.6,758.7,753.5,758.7,762.5z M716.7,762.5c0,6.8,1.4,11.9,4.1,15.4c2.7,3.5,6.8,5.2,12.1,5.2c5.3,0,9.4-1.7,12.1-5.2
			s4.1-8.6,4.1-15.5c0-6.7-1.3-11.9-4-15.3c-2.7-3.5-6.7-5.2-12-5.2c-5.4,0-9.5,1.7-12.2,5.2C718.1,750.6,716.7,755.7,716.7,762.5z"
			/>
		<path class="st1" d="M802.2,775.1c0,4.9-1.8,8.7-5.3,11.5c-3.5,2.8-8.4,4.2-14.6,4.2s-11.3-1-15.3-2.9v-8.5c2.5,1.2,5.2,2.1,8,2.8
			c2.8,0.7,5.4,1,7.9,1c3.6,0,6.2-0.7,7.9-2c1.7-1.4,2.5-3.2,2.5-5.5c0-2.1-0.8-3.8-2.3-5.2c-1.6-1.4-4.8-3.1-9.6-5.1
			c-5-2-8.5-4.3-10.6-7c-2.1-2.6-3.1-5.7-3.1-9.4c0-4.6,1.6-8.2,4.9-10.8c3.3-2.6,7.6-3.9,13.1-3.9c5.3,0,10.5,1.2,15.7,3.5
			l-2.9,7.3c-4.9-2.1-9.2-3.1-13.1-3.1c-2.9,0-5.1,0.6-6.6,1.9c-1.5,1.3-2.3,2.9-2.3,5c0,1.4,0.3,2.7,0.9,3.7c0.6,1,1.6,2,3,2.9
			c1.4,0.9,3.9,2.1,7.4,3.6c4,1.7,7,3.2,8.9,4.7c1.9,1.5,3.3,3.1,4.1,4.9C801.7,770.5,802.2,772.6,802.2,775.1z"/>
		<path class="st1" d="M856.1,790h-9v-24.8h-25.3V790h-9v-55h9v22.5h25.3v-22.5h9V790z"/>
		<path class="st1" d="M919.4,762.5c0,8.9-2.2,15.9-6.7,20.9c-4.5,5-10.8,7.4-19,7.4c-8.3,0-14.7-2.5-19.1-7.4
			c-4.4-4.9-6.7-11.9-6.7-21c0-9.1,2.2-16,6.7-20.9c4.5-4.9,10.9-7.3,19.2-7.3c8.2,0,14.5,2.5,18.9,7.4
			C917.2,746.6,919.4,753.5,919.4,762.5z M877.5,762.5c0,6.8,1.4,11.9,4.1,15.4c2.7,3.5,6.8,5.2,12.1,5.2c5.3,0,9.4-1.7,12.1-5.2
			s4.1-8.6,4.1-15.5c0-6.7-1.3-11.9-4-15.3c-2.7-3.5-6.7-5.2-12.1-5.2c-5.4,0-9.5,1.7-12.2,5.2C878.8,750.6,877.5,755.7,877.5,762.5
			z"/>
		<path class="st1" d="M967.6,751.7c0,5.7-1.9,10.1-5.6,13.2c-3.8,3.1-9.1,4.6-16.1,4.6h-5.7V790h-9v-55h15.8c6.9,0,12,1.4,15.4,4.2
			C965.9,742.1,967.6,746.2,967.6,751.7z M940.2,761.9h4.8c4.6,0,8-0.8,10.2-2.4c2.2-1.6,3.2-4.1,3.2-7.5c0-3.2-1-5.5-2.9-7.1
			c-1.9-1.6-4.9-2.3-9-2.3h-6.2V761.9z"/>
	</g>
</g>
<g id="lower-letter">
	<text transform="matrix(1 0 0 1 488.2734 946.6895)" class="st2 st3 st4">r</text>
	<polygon class="st5" points="301,955 915,86 361,34 3,1047 	"/>
	<g>
		
			<radialGradient id="SVGID_1_" cx="517.7147" cy="184.6204" r="0.2086" gradientTransform="matrix(2291.6716 0 0 2218.7549 -1185992.875 -409252.5625)" gradientUnits="userSpaceOnUse">
			<stop  offset="0" style="stop-color:#34364E;stop-opacity:0.98"/>
			<stop  offset="1" style="stop-color:#0C0824"/>
		</radialGradient>
		<path class="st6" d="M583.5,469.8c11-16.7,20.9-33.7,30.7-51c12.8-22.4,27.5-42.7,43.4-63c9.1-11.6,18.7-22.7,28-34.1
			c2.5-3.5,4.9-7,7.3-10.7c1.1-9.9,4.4-19.2,10-27.9c1.5-3.1,3.2-6,5.2-8.8c6.2-8.6,12.5-17.3,19.8-25c3.9-4.1,8.2-8,12.6-11.6
			H231.9v611.9H338c1.2-9.7,4.5-18.9,9.9-27.4C368,782.8,391,745,415.5,708.3c43.2-65,90.8-126.8,135.5-190.7
			C562.1,501.8,572.9,485.9,583.5,469.8z"/>
		<path class="st7" d="M231.9,237.6h508.5c6.7-5.5,13.8-10.6,20.5-15.6c6.6-4.9,13.5-9.2,20.6-13H203.3v669.1h133.3
			c-1.1-7.9-0.8-15.8,1-23.7c0.1-1.7,0.2-3.3,0.4-4.9H231.9V237.6z"/>
		<path class="st7" d="M449.2,360.9c-28.3,0-55.5,0.5-73.8,1.4c-2.3,0-6.3,1.4-6.3,3.4l0.2,307.1c0,2.5,1.1,3.4,3.4,3.4h43.7
			c2.5,0,3.4-1.1,3.4-3.4V563c7.7,0,11.4,0.6,22.3,0.6c64.6,0,117.2-31.2,117.2-103.8C559.3,404.4,528.4,360.9,449.2,360.9z
			 M443.2,518.1c-11.5,0-16.6,0-23.2-0.6V407.2c5.2-0.3,16.1-0.9,27.5-0.9c38,0,60.6,18.3,60.6,54.6
			C508.1,506.4,476.7,518.1,443.2,518.1z"/>
	</g>
	<polyline class="st1" points="610,540 610,519 297,955.8 313,955.8 537.6,636.5 	"/>
</g>
<g id="upper-letter">
	<text transform="matrix(1 0 0 1 143.2734 587.6895)" class="st2 st3 st4">P</text>
	<path class="st1" d="M427,613c1.4,3.3,4.9,14.7,5,15l358-503.7h-16.5c-0.3-0.8-301.7,426.9-302,426"/>
	<polygon class="st5" points="426,628 789,124 840.5,197.6 276.4,984.8 148,1023 	"/>
</g>
<g id="Layer_3">
</g>
</svg>
